<?xml version="1.0"?>
<svg xmlns="http://www.w3.org/2000/svg" xmlns:xlink="http://www.w3.org/1999/xlink" xmlnsSvgJs="http://svgjs.com/svgjs" version="1.1" width="512" height="512" x="0" y="0" viewBox="0 0 511.995 511.995" style="enable-background:new 0 0 512 512" xml:space="preserve" class=""><g><linearGradient xmlns="http://www.w3.org/2000/svg" id="SVGID_1_" gradientUnits="userSpaceOnUse" x1="255.997" x2="255.997" y1="511.995" y2="0"><stop stop-opacity="1" stop-color="#ffffff" offset="0"/><stop stop-opacity="1" stop-color="#ffffff" offset="1"/></linearGradient><g xmlns="http://www.w3.org/2000/svg"><g><path d="m206.604 85.601 34.394-34.394v83.787c0 8.284 6.716 15 15 15s15-6.716 15-15v-83.786l34.394 34.394c2.929 2.929 6.768 4.393 10.606 4.393s7.678-1.464 10.606-4.393c5.858-5.858 5.858-15.355 0-21.213l-60-60c-.001-.001-.002-.001-.002-.002-5.847-5.844-15.353-5.852-21.208 0-.001.001-.002.001-.002.002l-60 60c-5.858 5.858-5.858 15.355 0 21.213 5.856 5.857 15.354 5.857 21.212-.001zm-10.607 306.394c-8.284 0-15 6.716-15 15v30c0 8.284 6.716 15 15 15s15-6.716 15-15v-30c0-8.285-6.716-15-15-15zm240-212h-360c-24.813 0-45 20.187-45 45s20.187 45 45 45h45v197c0 24.813 20.187 45 45 45h180c24.813 0 45-20.187 45-45v-197h45c24.813 0 45-20.187 45-45s-20.187-45-45-45zm-315 60h-45c-8.271 0-15-6.729-15-15s6.729-15 15-15h45zm240 227c0 8.271-6.729 15-15 15h-180c-8.271 0-15-6.729-15-15v-257h150v227c0 8.284 6.716 15 15 15s15-6.716 15-15v-227h30zm75-227h-45v-30h45c8.271 0 15 6.729 15 15s-6.729 15-15 15z" fill="url(#SVGID_1_)" data-original="url(#SVGID_1_)"/></g></g></g></svg>
