<svg width="512" height="512" viewBox="0 0 512 512" fill="none" xmlns="http://www.w3.org/2000/svg">
<path d="M449.327 135.462L263.726 28.306C258.945 25.546 253.054 25.546 248.273 28.306L62.673 135.462C57.892 138.222 54.947 143.324 54.947 148.845V363.158C54.947 368.679 57.892 373.78 62.673 376.541L248.274 483.697C250.664 485.077 253.332 485.767 256 485.767C258.668 485.767 261.336 485.077 263.726 483.697L449.327 376.541C454.108 373.781 457.053 368.679 457.053 363.158V148.845C457.054 143.324 454.109 138.223 449.327 135.462V135.462ZM271.453 68.454L410.695 148.845L271.453 229.236V68.454ZM240.547 68.454V229.237L101.305 148.846L240.547 68.454ZM85.852 175.61L225.094 256.002L85.852 336.393V175.61ZM240.547 282.767V443.55L101.305 363.159L240.547 282.767ZM271.453 443.55V282.767L410.695 363.158L271.453 443.55ZM426.148 336.393L286.906 256.001L426.148 175.609V336.393Z" fill="#665E66"/>
<path d="M286.906 272.465V291.689L410.695 363.158L271.453 443.55V462.773L418.422 377.921L426.148 352.857L286.906 272.465Z" fill="#544F57"/>
<path d="M271.453 49.23V68.454L410.695 148.845L286.906 220.315V239.539L421.566 161.793L426.148 138.543L271.453 49.23Z" fill="#544F57"/>
<path d="M441.601 175.61L426.148 184.532V327.472L441.601 336.393V175.61Z" fill="#544F57"/>
<path d="M256 282.767L240.547 291.689V434.628L256 443.55V282.767Z" fill="#544F57"/>
<path d="M256 68.454L240.547 77.375V220.315L256 229.237V68.454Z" fill="#544F57"/>
<path d="M101.305 166.689L85.8521 175.61L225.094 256.002L85.8521 336.393V352.31L256 256.002L101.305 166.689Z" fill="#544F57"/>
<path d="M70.399 363.159V148.845C70.399 143.324 83.646 138.223 88.427 135.462L263.639 34.304L263.726 28.306C258.945 25.546 253.054 25.546 248.273 28.306L62.673 135.462C57.892 138.222 54.947 143.324 54.947 148.845V363.158C54.947 368.679 57.892 373.78 62.673 376.541L248.274 483.697C250.664 485.077 253.332 485.767 256 485.767C258.668 485.767 261.336 485.077 263.726 483.697L78.125 376.541C73.344 373.781 70.399 368.679 70.399 363.159Z" fill="#544F57"/>
<path d="M256 83.374C279.022 83.374 297.685 64.711 297.685 41.689C297.685 18.667 279.022 0.00402832 256 0.00402832C232.978 0.00402832 214.315 18.667 214.315 41.689C214.315 64.711 232.978 83.374 256 83.374Z" fill="#FFE07D"/>
<path d="M272.506 79.973C267.446 82.151 261.863 83.364 255.99 83.364C232.967 83.364 214.315 64.711 214.315 41.689C214.315 18.667 232.968 0 255.99 0C261.863 0 267.446 1.213 272.506 3.405C257.686 9.788 247.319 24.525 247.319 41.689C247.319 58.853 257.686 73.576 272.506 79.973V79.973Z" fill="#FFC250"/>
<path d="M256 512C279.022 512 297.685 493.337 297.685 470.315C297.685 447.293 279.022 428.63 256 428.63C232.978 428.63 214.315 447.293 214.315 470.315C214.315 493.337 232.978 512 256 512Z" fill="#FFE07D"/>
<path d="M272.506 508.599C267.446 510.777 261.863 511.99 255.99 511.99C232.967 511.99 214.315 493.337 214.315 470.315C214.315 447.293 232.968 428.626 255.99 428.626C261.863 428.626 267.446 429.839 272.506 432.031C257.686 438.414 247.319 453.151 247.319 470.315C247.319 487.479 257.686 502.202 272.506 508.599V508.599Z" fill="#FFC250"/>
<path d="M441.601 404.843C464.623 404.843 483.286 386.18 483.286 363.158C483.286 340.136 464.623 321.473 441.601 321.473C418.579 321.473 399.916 340.136 399.916 363.158C399.916 386.18 418.579 404.843 441.601 404.843Z" fill="#FFE07D"/>
<path d="M458.107 401.442C453.047 403.62 447.464 404.833 441.591 404.833C418.568 404.833 399.916 386.18 399.916 363.158C399.916 340.135 418.569 321.469 441.591 321.469C447.464 321.469 453.047 322.682 458.107 324.874C443.287 331.257 432.92 345.994 432.92 363.158C432.92 380.322 443.287 395.046 458.107 401.442V401.442Z" fill="#FFC250"/>
<path d="M70.3991 404.843C93.4211 404.843 112.084 386.18 112.084 363.158C112.084 340.136 93.4211 321.473 70.3991 321.473C47.3771 321.473 28.7141 340.136 28.7141 363.158C28.7141 386.18 47.3771 404.843 70.3991 404.843Z" fill="#FFE07D"/>
<path d="M86.9051 401.442C81.8451 403.62 76.2621 404.833 70.3891 404.833C47.3661 404.833 28.7141 386.18 28.7141 363.158C28.7141 340.135 47.3671 321.469 70.3891 321.469C76.2621 321.469 81.8451 322.682 86.9051 324.874C72.0851 331.257 61.7181 345.994 61.7181 363.158C61.7181 380.322 72.0851 395.046 86.9051 401.442V401.442Z" fill="#FFC250"/>
<path d="M441.601 190.53C464.623 190.53 483.286 171.867 483.286 148.845C483.286 125.823 464.623 107.16 441.601 107.16C418.579 107.16 399.916 125.823 399.916 148.845C399.916 171.867 418.579 190.53 441.601 190.53Z" fill="#FFE07D"/>
<path d="M458.107 187.129C453.047 189.307 447.464 190.52 441.591 190.52C418.568 190.52 399.916 171.867 399.916 148.845C399.916 125.823 418.569 107.156 441.591 107.156C447.464 107.156 453.047 108.369 458.107 110.561C443.287 116.944 432.92 131.681 432.92 148.845C432.92 166.009 443.287 180.732 458.107 187.129V187.129Z" fill="#FFC250"/>
<path d="M70.3991 190.53C93.4211 190.53 112.084 171.867 112.084 148.845C112.084 125.823 93.4211 107.16 70.3991 107.16C47.3771 107.16 28.7141 125.823 28.7141 148.845C28.7141 171.867 47.3771 190.53 70.3991 190.53Z" fill="#FFE07D"/>
<path d="M86.9051 187.129C81.8451 189.307 76.2621 190.52 70.3891 190.52C47.3661 190.52 28.7141 171.867 28.7141 148.845C28.7141 125.823 47.3671 107.156 70.3891 107.156C76.2621 107.156 81.8451 108.369 86.9051 110.561C72.0851 116.944 61.7181 131.681 61.7181 148.845C61.7181 166.009 72.0851 180.732 86.9051 187.129V187.129Z" fill="#FFC250"/>
<path d="M256 378.683C323.756 378.683 378.683 323.756 378.683 256C378.683 188.244 323.756 133.317 256 133.317C188.244 133.317 133.317 188.244 133.317 256C133.317 323.756 188.244 378.683 256 378.683Z" fill="#FFE07D"/>
<path d="M265.594 378.31C262.429 378.555 259.226 378.681 255.998 378.681C188.242 378.681 133.317 323.755 133.317 256C133.317 188.245 188.243 133.319 255.998 133.319C259.226 133.319 262.429 133.445 265.594 133.69C202.318 138.579 152.502 191.472 152.502 256C152.502 320.528 202.319 373.421 265.594 378.31Z" fill="#FFC250"/>
<path d="M256 344.084C304.647 344.084 344.084 304.647 344.084 256C344.084 207.353 304.647 167.916 256 167.916C207.353 167.916 167.916 207.353 167.916 256C167.916 304.647 207.353 344.084 256 344.084Z" fill="#FFC250"/>
<path d="M255.191 191.484L215.603 243.488C208.55 252.754 215.157 266.088 226.802 266.088H247.523V314.443C247.523 324.269 260.188 328.233 265.791 320.161L296.762 275.533C303.239 266.2 296.56 253.434 285.199 253.434H273.199V197.559C273.199 187.957 261.007 183.844 255.191 191.484V191.484Z" fill="#FFE07D"/>
</svg>
