<svg width="512" height="512" viewBox="0 0 512 512" fill="none" xmlns="http://www.w3.org/2000/svg">
<path d="M349.43 512C439.215 512 512 439.215 512 349.43C512 259.645 439.215 186.86 349.43 186.86C259.645 186.86 186.86 259.645 186.86 349.43C186.86 439.215 259.645 512 349.43 512Z" fill="#FFE07D"/>
<path d="M362.144 511.506C357.95 511.831 353.706 511.998 349.428 511.998C259.643 511.998 186.86 439.215 186.86 349.43C186.86 259.645 259.643 186.862 349.428 186.862C353.705 186.862 357.95 187.029 362.144 187.354C278.296 193.833 212.283 263.923 212.283 349.43C212.283 434.937 278.296 505.028 362.144 511.506Z" fill="#FFC250"/>
<path d="M349.43 466.152C413.894 466.152 466.152 413.894 466.152 349.43C466.152 284.966 413.894 232.708 349.43 232.708C284.966 232.708 232.708 284.966 232.708 349.43C232.708 413.894 284.966 466.152 349.43 466.152Z" fill="#FFC250"/>
<path d="M162.57 325.14C252.355 325.14 325.14 252.355 325.14 162.57C325.14 72.7851 252.355 0 162.57 0C72.7851 0 0 72.7851 0 162.57C0 252.355 72.7851 325.14 162.57 325.14Z" fill="#FFE07D"/>
<path d="M175.284 324.646C171.09 324.971 166.846 325.138 162.568 325.138C72.783 325.138 0 252.355 0 162.57C0 72.785 72.783 0.00195312 162.568 0.00195312C166.845 0.00195312 171.09 0.168953 175.284 0.493953C91.436 6.97195 25.423 77.063 25.423 162.57C25.423 248.077 91.436 318.167 175.284 324.646V324.646Z" fill="#FFC250"/>
<path d="M162.57 279.292C227.034 279.292 279.292 227.034 279.292 162.57C279.292 98.1062 227.034 45.848 162.57 45.848C98.1064 45.848 45.8481 98.1062 45.8481 162.57C45.8481 227.034 98.1064 279.292 162.57 279.292Z" fill="#FFC250"/>
<path d="M161.498 77.0781L109.039 145.99C99.6919 158.268 108.448 175.938 123.879 175.938H151.337V240.014C151.337 253.034 168.12 258.288 175.544 247.591L216.585 188.454C225.168 176.086 216.317 159.169 201.262 159.169H185.361V85.1271C185.361 72.4041 169.205 66.9541 161.498 77.0781V77.0781Z" fill="#FFE07D"/>
<path d="M367.298 332.906C356.588 329.12 344.785 324.58 338.446 319.608C338.03 319.281 337.251 317.325 337.798 314.423C338.06 313.033 339.262 308.394 343.736 307.047C354.409 303.832 361.191 309.113 361.929 309.726C369.065 315.65 379.662 314.677 385.591 307.542C391.519 300.408 390.553 289.825 383.422 283.892C378.887 280.119 372.74 276.677 365.481 274.568V273.173C365.481 263.893 357.958 256.37 348.678 256.37C339.398 256.37 331.875 263.893 331.875 273.173V275.608C317.942 280.67 307.647 292.952 304.774 308.199C301.968 323.088 306.923 337.592 317.706 346.05C327.842 354 342.148 359.659 356.098 364.59C364.425 367.533 365.273 373.504 364.518 377.995C363.677 382.997 359.371 391.481 348.561 391.553C337.362 391.631 334.709 391.213 326.52 385.855C318.754 380.775 308.34 382.951 303.26 390.717C298.179 398.482 300.356 408.896 308.122 413.977C317.058 419.823 324.132 422.72 331.875 424.078V425.686C331.875 434.966 339.398 442.489 348.678 442.489C357.958 442.489 365.481 434.966 365.481 425.686V422.177C382.006 416.202 394.602 401.748 397.659 383.566C401.449 361.024 389.248 340.665 367.298 332.906V332.906Z" fill="#FFE07D"/>
<path d="M439.381 36.408L438.21 47.627C470.703 66.217 495.573 95.289 508.933 130.669C514.38 145.093 507.102 161.201 492.679 166.648C478.256 172.095 462.147 164.817 456.7 150.394C451.135 135.656 442.51 122.598 431.498 111.909L431.167 115.08C429.652 129.592 412.995 137.022 401.185 128.453L337.172 82.007C325.363 73.439 327.257 55.301 340.58 49.357L412.807 17.132C426.132 11.185 440.896 21.895 439.381 36.408V36.408Z" fill="#DF75A5"/>
<path d="M401.188 101.27C412.992 109.845 429.65 102.415 431.172 87.898C431.302 86.613 432.873 86.081 433.771 87.008C443.7 97.257 451.528 109.504 456.702 123.218C462.14 137.643 478.249 144.913 492.674 139.464C499.2 137.003 504.272 132.354 507.351 126.664C507.901 127.992 508.427 129.32 508.931 130.671C514.381 145.097 507.099 161.205 492.674 166.655C478.249 172.093 462.14 164.823 456.702 150.398C451.138 135.663 442.505 122.6 431.492 111.907L431.171 115.078C429.648 129.595 412.99 137.025 401.187 128.45L337.165 82.013C327.25 74.812 326.998 60.844 335.081 53.071C335.722 53.689 336.409 54.273 337.165 54.822L401.188 101.27Z" fill="#DD5790"/>
<path d="M72.6212 475.591L73.7922 464.372C41.2992 445.782 16.4292 416.71 3.06915 381.33C-2.37785 366.906 4.90015 350.798 19.3232 345.351C33.7462 339.904 49.8551 347.182 55.3021 361.605C60.8671 376.343 69.4922 389.401 80.5042 400.09L80.8352 396.919C82.3502 382.407 99.0072 374.977 110.817 383.546L174.83 429.992C186.639 438.56 184.745 456.698 171.422 462.642L99.1952 494.867C85.8702 500.813 71.1062 490.103 72.6212 475.591V475.591Z" fill="#DF75A5"/>
<path d="M4.65005 358.16C0.918048 365.041 0.0820479 373.433 3.07005 381.333C16.431 416.71 41.298 445.79 73.789 464.371L72.621 475.591C71.11 490.108 85.867 500.813 99.194 494.871L171.425 462.642C183.893 457.078 186.354 440.844 176.932 431.753C175.398 433.253 173.555 434.512 171.425 435.462L99.194 467.691C85.868 473.633 71.11 462.928 72.621 448.411L73.789 437.191C42.534 419.308 18.331 391.728 4.65005 358.16V358.16Z" fill="#DD5790"/>
</svg>
