<svg width="512" height="512" viewBox="0 0 512 512" fill="none" xmlns="http://www.w3.org/2000/svg">
<path d="M256 26.2321C264.534 26.2321 271.453 33.1501 271.453 41.6851V470.312C271.453 478.846 264.535 485.765 256 485.765C247.466 485.765 240.547 478.847 240.547 470.312V41.6841C240.547 33.1501 247.466 26.2321 256 26.2321V26.2321Z" fill="#665E66"/>
<path d="M93.5289 93.5291C99.5639 87.4941 109.348 87.4941 115.382 93.5291L418.467 396.614C424.502 402.649 424.502 412.433 418.467 418.467C412.432 424.502 402.648 424.502 396.614 418.467L93.5289 115.383C87.4949 109.348 87.4949 99.5641 93.5289 93.5291V93.5291Z" fill="#665E66"/>
<path d="M26.2319 256C26.2319 247.466 33.1499 240.547 41.6849 240.547H470.312C478.846 240.547 485.765 247.465 485.765 256C485.765 264.534 478.847 271.453 470.312 271.453H41.6839C33.1499 271.453 26.2319 264.534 26.2319 256V256Z" fill="#665E66"/>
<path d="M93.5289 418.471C87.4939 412.436 87.4939 402.652 93.5289 396.618L396.614 93.5321C402.649 87.4971 412.433 87.4971 418.467 93.5321C424.502 99.5671 424.502 109.351 418.467 115.385L115.383 418.471C109.348 424.505 99.5639 424.505 93.5289 418.471V418.471Z" fill="#665E66"/>
<path d="M264.21 483.405C261.83 484.899 259.018 485.764 256 485.764C247.47 485.764 240.547 478.852 240.547 470.311V41.686C240.547 33.156 247.47 26.233 256 26.233C259.018 26.233 261.831 27.098 264.21 28.592C259.852 31.322 256.958 36.164 256.958 41.686V470.311C256.958 475.833 259.853 480.675 264.21 483.405Z" fill="#544F57"/>
<path d="M422.604 410.993C421.978 413.732 420.601 416.333 418.466 418.467C412.434 424.499 402.652 424.506 396.613 418.467L93.5289 115.383C87.4969 109.351 87.4969 99.561 93.5289 93.53C95.6629 91.396 98.2639 90.019 101.003 89.392C99.8519 94.404 101.229 99.874 105.133 103.779L408.217 406.863C412.122 410.767 417.592 412.144 422.604 410.993V410.993Z" fill="#544F57"/>
<path d="M101.003 422.608C98.2641 421.982 95.6631 420.605 93.5291 418.47C87.4971 412.438 87.4901 402.655 93.5291 396.617L396.613 93.533C402.644 87.501 412.435 87.501 418.466 93.533C420.6 95.667 421.977 98.268 422.604 101.007C417.592 99.856 412.122 101.233 408.217 105.137L105.133 408.221C101.229 412.126 99.8521 417.597 101.003 422.608V422.608Z" fill="#544F57"/>
<path d="M483.403 247.789C484.897 250.169 485.762 252.981 485.762 255.999C485.762 264.529 478.85 271.452 470.309 271.452H41.684C33.154 271.452 26.231 264.529 26.231 255.999C26.231 252.981 27.096 250.168 28.59 247.789C31.32 252.147 36.162 255.041 41.684 255.041H470.309C475.832 255.042 480.673 252.147 483.403 247.789Z" fill="#544F57"/>
<path d="M256 83.368C279.021 83.368 297.684 64.7054 297.684 41.684C297.684 18.6626 279.021 0 256 0C232.978 0 214.316 18.6626 214.316 41.684C214.316 64.7054 232.978 83.368 256 83.368Z" fill="#FFE07D"/>
<path d="M272.506 3.40101C267.446 1.22301 261.863 0.0100098 255.99 0.0100098C232.968 0.0100098 214.315 18.662 214.315 41.685C214.315 64.708 232.967 83.374 255.99 83.374C261.863 83.374 267.446 82.161 272.506 79.969C257.686 73.586 247.319 58.849 247.319 41.685C247.319 24.521 257.686 9.79801 272.506 3.40101V3.40101Z" fill="#FFC250"/>
<path d="M256 512C279.021 512 297.684 493.337 297.684 470.316C297.684 447.295 279.021 428.632 256 428.632C232.978 428.632 214.316 447.295 214.316 470.316C214.316 493.337 232.978 512 256 512Z" fill="#FFE07D"/>
<path d="M272.506 508.599C267.446 510.777 261.863 511.99 255.99 511.99C232.968 511.99 214.315 493.338 214.315 470.315C214.315 447.292 232.967 428.626 255.99 428.626C261.863 428.626 267.446 429.839 272.506 432.031C257.686 438.414 247.319 453.151 247.319 470.315C247.319 487.479 257.686 502.202 272.506 508.599V508.599Z" fill="#FFC250"/>
<path d="M104.456 146.14C127.477 146.14 146.14 127.477 146.14 104.456C146.14 81.4345 127.477 62.772 104.456 62.772C81.4345 62.772 62.772 81.4345 62.772 104.456C62.772 127.477 81.4345 146.14 104.456 146.14Z" fill="#FFE07D"/>
<path d="M120.967 142.741C115.908 144.919 110.324 146.132 104.451 146.132C81.4289 146.132 62.7759 127.48 62.7759 104.457C62.7759 81.4339 81.4279 62.7679 104.451 62.7679C110.324 62.7679 115.907 63.9809 120.967 66.1729C106.147 72.5559 95.7799 87.2929 95.7799 104.457C95.7799 121.621 106.147 136.344 120.967 142.741V142.741Z" fill="#FFC250"/>
<path d="M407.543 449.229C430.564 449.229 449.227 430.566 449.227 407.545C449.227 384.524 430.564 365.861 407.543 365.861C384.521 365.861 365.859 384.524 365.859 407.545C365.859 430.566 384.521 449.229 407.543 449.229Z" fill="#FFE07D"/>
<path d="M424.049 445.828C418.99 448.006 413.406 449.219 407.533 449.219C384.511 449.219 365.858 430.567 365.858 407.544C365.858 384.522 384.51 365.855 407.533 365.855C413.406 365.855 418.989 367.068 424.049 369.26C409.229 375.643 398.862 390.38 398.862 407.544C398.862 424.708 409.229 439.431 424.049 445.828V445.828Z" fill="#FFC250"/>
<path d="M41.6869 297.686C64.7084 297.686 83.3709 279.023 83.3709 256.002C83.3709 232.981 64.7084 214.318 41.6869 214.318C18.6655 214.318 0.00292969 232.981 0.00292969 256.002C0.00292969 279.023 18.6655 297.686 41.6869 297.686Z" fill="#FFE07D"/>
<path d="M58.193 294.286C53.134 296.464 47.55 297.677 41.677 297.677C18.655 297.677 0.00195312 279.025 0.00195312 256.002C0.00195312 232.979 18.654 214.313 41.677 214.313C47.55 214.313 53.133 215.526 58.193 217.718C43.373 224.101 33.006 238.838 33.006 256.002C33.006 273.166 43.373 287.889 58.193 294.286Z" fill="#FFC250"/>
<path d="M470.313 297.686C493.334 297.686 511.997 279.023 511.997 256.002C511.997 232.981 493.334 214.318 470.313 214.318C447.291 214.318 428.629 232.981 428.629 256.002C428.629 279.023 447.291 297.686 470.313 297.686Z" fill="#FFE07D"/>
<path d="M486.819 294.286C481.76 296.464 476.176 297.677 470.303 297.677C447.281 297.677 428.628 279.025 428.628 256.002C428.628 232.979 447.28 214.313 470.303 214.313C476.176 214.313 481.759 215.526 486.819 217.718C471.999 224.101 461.632 238.838 461.632 256.002C461.633 273.166 472 287.889 486.819 294.286Z" fill="#FFC250"/>
<path d="M104.457 449.229C127.478 449.229 146.141 430.566 146.141 407.545C146.141 384.524 127.478 365.861 104.457 365.861C81.4355 365.861 62.7729 384.524 62.7729 407.545C62.7729 430.566 81.4355 449.229 104.457 449.229Z" fill="#FFE07D"/>
<path d="M120.964 445.828C115.905 448.006 110.321 449.219 104.448 449.219C81.4259 449.219 62.7729 430.567 62.7729 407.544C62.7729 384.522 81.4249 365.855 104.448 365.855C110.321 365.855 115.904 367.068 120.964 369.26C106.144 375.643 95.777 390.38 95.777 407.544C95.777 424.708 106.144 439.431 120.964 445.828V445.828Z" fill="#FFC250"/>
<path d="M407.543 146.144C430.564 146.144 449.227 127.481 449.227 104.46C449.227 81.4386 430.564 62.776 407.543 62.776C384.521 62.776 365.859 81.4386 365.859 104.46C365.859 127.481 384.521 146.144 407.543 146.144Z" fill="#FFE07D"/>
<path d="M424.049 142.743C418.989 144.921 413.406 146.134 407.533 146.134C384.511 146.134 365.858 127.482 365.858 104.459C365.858 81.436 384.51 62.77 407.533 62.77C413.406 62.77 418.989 63.983 424.049 66.175C409.229 72.558 398.862 87.295 398.862 104.459C398.862 121.623 409.229 136.346 424.049 142.743V142.743Z" fill="#FFC250"/>
<path d="M382.31 256C382.31 258.596 382.228 261.171 382.073 263.726C380.373 292.035 369.34 317.831 352.012 338.074C348.664 341.999 345.069 345.708 341.267 349.179C327.164 362.108 310.104 371.863 291.231 377.334C280.404 380.466 268.969 382.196 257.153 382.299C257.122 382.309 257.091 382.309 257.05 382.299C256.7 382.309 256.35 382.309 255.999 382.309C255.649 382.309 255.299 382.309 254.948 382.299C254.907 382.309 254.876 382.309 254.845 382.299C243.029 382.196 231.594 380.465 220.767 377.334C201.894 371.864 184.834 362.108 170.731 349.179C166.93 345.707 163.334 341.999 159.986 338.074C142.658 317.831 131.625 292.035 129.925 263.726C129.77 261.171 129.688 258.596 129.688 256C129.688 253.404 129.77 250.828 129.925 248.274C131.635 219.821 142.771 193.912 160.253 173.617C163.611 169.702 167.217 166.004 171.029 162.532C185.08 149.758 202.027 140.095 220.766 134.666C231.593 131.534 243.028 129.804 254.844 129.701C254.875 129.691 254.906 129.691 254.947 129.701C255.297 129.691 255.647 129.691 255.998 129.691C256.348 129.691 256.698 129.691 257.049 129.701C257.09 129.691 257.121 129.691 257.152 129.701C268.968 129.804 280.403 131.535 291.23 134.666C309.969 140.095 326.915 149.758 340.967 162.532C344.779 166.004 348.384 169.702 351.743 173.617C369.225 193.911 380.361 219.82 382.071 248.274C382.228 250.828 382.31 253.404 382.31 256V256Z" fill="#80B4FB"/>
<path d="M286.787 378.529C276.938 381.001 266.626 382.31 256.005 382.31C186.241 382.31 129.685 325.764 129.685 256C129.685 186.236 186.242 129.69 256.005 129.69C266.626 129.69 276.938 130.998 286.787 133.471C231.899 147.203 191.248 196.847 191.248 256C191.249 315.153 231.899 364.797 286.787 378.529Z" fill="#61A2F9"/>
<path d="M382.073 263.726C382.228 261.171 382.31 258.596 382.31 256C382.31 253.404 382.228 250.828 382.073 248.274H322.611C322.189 231.101 320.376 214.494 317.306 199.114C329.895 192.614 341.525 184.063 351.745 173.617C348.387 169.702 344.781 166.004 340.969 162.532C332.789 170.949 323.59 177.964 313.649 183.517C311.166 174.41 308.21 165.87 304.779 158.092C300.741 148.913 296.187 141.074 291.232 134.666C280.405 131.534 268.97 129.804 257.154 129.701C269.104 130.463 281.25 142.98 290.635 164.315C294.096 172.165 297.043 180.88 299.464 190.245C285.814 195.602 271.144 198.404 256.001 198.404C240.857 198.404 226.188 195.602 212.538 190.245C214.959 180.881 217.905 172.165 221.367 164.315C230.752 142.98 242.898 130.463 254.848 129.701C243.032 129.804 231.597 131.535 220.77 134.666C215.815 141.074 211.261 148.913 207.223 158.092C203.793 165.87 200.836 174.41 198.353 183.517C188.412 177.964 179.212 170.949 171.033 162.532C167.221 166.004 163.616 169.702 160.257 173.617C170.476 184.063 182.107 192.613 194.696 199.114C191.626 214.495 189.813 231.101 189.391 248.274H129.929C129.774 250.829 129.692 253.404 129.692 256C129.692 258.596 129.774 261.171 129.929 263.726H189.391C189.803 280.703 191.585 297.114 194.593 312.35C181.922 318.902 170.25 327.524 159.989 338.073C163.337 341.998 166.932 345.707 170.734 349.178L170.744 349.168C178.965 340.669 188.216 333.571 198.209 327.967C200.723 337.27 203.731 345.985 207.223 353.907C211.261 363.086 215.815 370.926 220.77 377.333C231.597 380.465 243.032 382.195 254.848 382.298C242.898 381.536 230.752 369.019 221.367 347.684C217.844 339.68 214.856 330.779 212.404 321.219C226.085 315.831 240.806 313.008 256.001 313.008C271.196 313.008 285.917 315.831 299.598 321.219C297.146 330.779 294.159 339.68 290.635 347.684C281.25 369.019 269.104 381.536 257.154 382.298C268.97 382.195 280.405 380.464 291.232 377.333C296.187 370.925 300.74 363.086 304.779 353.907C308.271 345.985 311.279 337.27 313.793 327.967C323.786 333.571 333.037 340.669 341.258 349.168L341.268 349.178C345.069 345.706 348.665 341.998 352.013 338.073C341.752 327.524 330.081 318.901 317.409 312.35C320.417 297.114 322.199 280.703 322.611 263.726H382.073ZM302.925 305.953C288.142 300.442 272.308 297.557 256 297.557C239.692 297.557 223.859 300.442 209.075 305.953C206.654 292.674 205.222 278.437 204.851 263.726H307.148C306.777 278.437 305.345 292.674 302.925 305.953V305.953ZM204.852 248.274C205.223 233.357 206.696 218.935 209.179 205.501C223.941 210.992 239.734 213.856 256 213.856C272.266 213.856 288.059 210.992 302.821 205.501C305.304 218.934 306.777 233.357 307.148 248.274H204.852Z" fill="#5490F9"/>
</svg>
