<svg width="512" height="512" viewBox="0 0 512 512" fill="none" xmlns="http://www.w3.org/2000/svg">
<g clip-path="url(#clip0_2_2111)">
<path d="M158.474 0.0770264H96.9132C44.8762 0.0770264 4.93218 46.213 12.3802 97.714L25.6332 189.36H229.755L243.008 97.714C250.455 46.213 210.511 0.0770264 158.474 0.0770264V0.0770264Z" fill="#665E66"/>
<path d="M93.3703 97.715L106.626 189.355H25.6243L12.3793 97.715C4.92931 46.212 44.8653 0.0789795 96.9053 0.0789795H158.464C161.753 0.0789795 164.997 0.268979 168.185 0.626979C121 5.94098 86.3893 49.467 93.3703 97.715V97.715Z" fill="#544F57"/>
<path d="M224.978 218.666H30.4091C14.7851 218.666 2.11914 206 2.11914 190.376C2.11914 174.752 14.7851 162.086 30.4091 162.086H224.978C240.602 162.086 253.268 174.752 253.268 190.376C253.268 206 240.602 218.666 224.978 218.666Z" fill="#8B5E5E"/>
<path d="M209.596 114.656V227.641C209.596 272.8 173.476 310.233 128.318 310.57C82.799 310.91 45.79 274.11 45.79 228.67V114.656H54.982C72.776 114.656 87.201 100.231 87.201 82.437C107.651 108.963 147.666 108.963 168.116 82.437C168.116 100.231 182.541 114.656 200.335 114.656H209.527" fill="#AA8080"/>
<path d="M153.673 306.303C145.708 309.01 137.184 310.509 128.313 310.576C82.795 310.912 45.79 274.119 45.79 228.668V114.656H54.974C72.772 114.656 87.202 100.237 87.202 82.439C90.357 86.533 93.992 90.001 97.941 92.831V228.669C97.942 264.757 121.277 295.385 153.673 306.303Z" fill="#9D6B6B"/>
<path d="M127.693 234.127C114.114 234.127 101.35 228.839 91.748 219.238C88.731 216.22 88.731 211.328 91.749 208.311C94.766 205.293 99.659 205.294 102.676 208.311C109.358 214.994 118.242 218.674 127.693 218.674C137.144 218.674 146.029 214.994 152.712 208.311C155.729 205.293 160.622 205.294 163.639 208.311C166.656 211.329 166.656 216.221 163.638 219.238C154.037 228.839 141.271 234.127 127.693 234.127V234.127Z" fill="#DF75A5"/>
<path d="M106.322 179.971C102.054 179.971 98.5962 176.512 98.5962 172.245V155.7C98.5962 151.433 102.055 147.974 106.322 147.974C110.589 147.974 114.048 151.433 114.048 155.7V172.245C114.048 176.512 110.589 179.971 106.322 179.971Z" fill="#544F57"/>
<path d="M149.064 179.971C144.796 179.971 141.338 176.512 141.338 172.245V155.7C141.338 151.433 144.797 147.974 149.064 147.974C153.332 147.974 156.79 151.433 156.79 155.7V172.245C156.791 176.512 153.332 179.971 149.064 179.971Z" fill="#544F57"/>
<path d="M404.505 201.425H368.346C316.604 201.425 274.659 243.37 274.659 295.112V398.111H498.191V295.112C498.192 243.37 456.247 201.425 404.505 201.425V201.425Z" fill="#AA8080"/>
<path d="M425.8 203.852C384.321 213.506 353.412 250.701 353.412 295.111V398.116H274.659V295.112C274.659 243.374 316.597 201.425 368.346 201.425H404.501C411.828 201.425 418.954 202.264 425.8 203.852V203.852Z" fill="#9D6B6B"/>
<path d="M483.71 420.009H289.141C273.517 420.009 260.851 407.343 260.851 391.719C260.851 376.095 273.517 363.429 289.141 363.429H483.71C499.334 363.429 512 376.095 512 391.719C512 407.343 499.334 420.009 483.71 420.009V420.009Z" fill="#EAAC9D"/>
<path d="M468.328 315.999V428.984C468.328 474.143 432.208 511.576 387.05 511.913C341.531 512.253 304.522 475.453 304.522 430.013V315.999C304.522 315.774 304.523 274.826 304.525 274.602C304.525 274.602 367.905 348.252 468.328 315.999V315.999Z" fill="#FFDDCE"/>
<path d="M410.828 508.173C403.322 510.545 395.335 511.853 387.045 511.921C341.527 512.257 304.522 475.464 304.522 430.013V274.61C304.522 274.61 322.13 295.07 353.485 309.702V430.013C353.486 466.704 377.593 497.736 410.828 508.173Z" fill="#FFCBBE"/>
<path d="M365.055 381.314C360.787 381.314 357.329 377.855 357.329 373.588V357.043C357.329 352.776 360.788 349.317 365.055 349.317C369.322 349.317 372.781 352.776 372.781 357.043V373.588C372.781 377.855 369.322 381.314 365.055 381.314Z" fill="#544F57"/>
<path d="M407.796 381.314C403.528 381.314 400.07 377.855 400.07 373.588V357.043C400.07 352.776 403.529 349.317 407.796 349.317C412.064 349.317 415.522 352.776 415.522 357.043V373.588C415.523 377.855 412.064 381.314 407.796 381.314Z" fill="#544F57"/>
<path d="M386.426 435.463C372.847 435.463 360.082 430.175 350.48 420.574C347.463 417.556 347.463 412.664 350.481 409.647C353.498 406.629 358.391 406.63 361.408 409.647C368.09 416.33 376.974 420.01 386.426 420.01C395.876 420.01 404.761 416.33 411.443 409.647C414.461 406.63 419.354 406.629 422.37 409.647C425.388 412.664 425.388 417.556 422.371 420.574C412.769 430.175 400.004 435.463 386.426 435.463V435.463Z" fill="#DF75A5"/>
<path d="M431.905 40.8231L430.75 51.8821C462.782 70.2081 487.299 98.8681 500.47 133.746C505.839 147.965 498.665 163.845 484.446 169.214C470.227 174.583 454.347 167.409 448.978 153.19C443.492 138.661 434.989 125.789 424.134 115.251L423.808 118.377C422.314 132.683 405.893 140.007 394.251 131.56L331.146 85.7731C319.505 77.3271 321.371 59.4461 334.506 53.5861L405.708 21.8181C418.844 15.9581 433.398 26.5161 431.905 40.8231V40.8231Z" fill="#DF75A5"/>
<path d="M394.253 104.764C405.889 113.217 422.311 105.893 423.812 91.582C423.94 90.316 425.489 89.791 426.375 90.705C436.163 100.808 443.88 112.882 448.981 126.401C454.342 140.622 470.222 147.789 484.443 142.416C490.876 139.99 495.876 135.407 498.912 129.798C499.454 131.107 499.973 132.416 500.47 133.748C505.842 147.969 498.664 163.849 484.443 169.221C470.222 174.582 454.342 167.415 448.981 153.194C443.496 138.668 434.986 125.791 424.128 115.249L423.812 118.375C422.311 132.686 405.889 140.011 394.253 131.557L331.14 85.78C321.366 78.681 321.118 64.912 329.086 57.248C329.718 57.858 330.395 58.433 331.14 58.975L394.253 104.764Z" fill="#DD5790"/>
<path d="M70.3502 473.772L71.5051 462.713C39.4731 444.387 14.9562 415.727 1.78515 380.849C-3.58385 366.63 3.59015 350.75 17.8092 345.381C32.0282 340.012 47.9082 347.186 53.2772 361.405C58.7632 375.934 67.2662 388.806 78.1212 399.344L78.4472 396.218C79.9412 381.912 96.3622 374.588 108.004 383.035L171.109 428.822C182.75 437.268 180.884 455.149 167.749 461.009L96.5471 492.777C83.4111 498.637 68.8562 488.079 70.3502 473.772V473.772Z" fill="#DF75A5"/>
<path d="M3.34314 358.008C-0.33586 364.791 -1.15986 373.064 1.78514 380.852C14.9561 415.727 39.4701 444.394 71.5011 462.712L70.3501 473.773C68.8601 488.084 83.4081 498.637 96.5461 492.779L167.751 461.008C180.042 455.523 182.468 439.519 173.18 430.557C171.668 432.036 169.851 433.277 167.751 434.214L96.5461 465.985C83.4091 471.843 68.8611 461.29 70.3501 446.979L71.5011 435.918C40.6891 418.289 16.8301 391.1 3.34314 358.008V358.008Z" fill="#DD5790"/>
</g>
<defs>
<clipPath id="clip0_2_2111">
<rect width="512" height="512" fill="white"/>
</clipPath>
</defs>
</svg>
