<svg width="512" height="512" viewBox="0 0 512 512" fill="none" xmlns="http://www.w3.org/2000/svg">
<path d="M377.014 38.4021L293.752 84.7231L351.993 142.964L398.314 59.7021C405.977 45.9291 390.787 30.7401 377.014 38.4021V38.4021Z" fill="#80B4FB"/>
<path d="M395.753 41.05L395.743 41.061C394.939 40.082 391.365 41.864 385.627 47.005L317.285 108.249L293.756 84.72L377.015 38.403C383.927 34.56 391.189 36.466 395.753 41.05V41.05Z" fill="#61A2F9"/>
<path d="M279.824 0.784C274.418 0 264.445 0 264.445 0C247.062 0.443 229.834 3.179 213.239 8.132C213.043 8.192 211.607 8.612 211.456 8.678C172.447 20.74 137.435 45.309 112.726 78C86.7838 112.323 73.0708 153.247 73.0708 196.347C73.0708 219.014 76.9188 241.266 84.5008 262.458C86.0248 266.724 87.4438 271.005 88.7578 275.299C99.4068 310.102 131.81 333.674 168.206 333.674" fill="#80B4FB"/>
<path d="M279.829 0.783019L279.499 1.76202C269.517 3.12202 259.658 5.25402 250.005 8.12902C249.809 8.18902 248.374 8.61102 248.223 8.67502C209.21 20.738 174.204 45.308 149.49 77.996C123.55 112.321 109.838 153.251 109.838 196.343C109.838 219.018 113.691 241.27 121.263 262.46C122.788 266.725 124.209 271.01 125.528 275.296C132.636 298.537 149.449 316.771 170.671 326.321L168.209 333.677C131.813 333.677 99.4128 310.107 88.7618 275.297C87.4428 271.011 86.0318 266.726 84.5068 262.461C76.9248 241.27 73.0718 219.018 73.0718 196.344C73.0718 153.251 86.7838 112.322 112.734 77.997C137.438 45.309 172.454 20.739 211.456 8.67602C211.598 8.61502 213.052 8.18702 213.238 8.13002C229.834 3.18502 247.069 0.445019 264.448 0.00201886C264.448 1.88596e-05 274.421 1.88351e-05 279.829 0.783019V0.783019Z" fill="#61A2F9"/>
<path d="M418.653 185.395L327.841 94.584C314.389 81.132 297.553 72.656 279.827 69.423V0.744995C248.772 0.744995 223.597 25.92 223.597 56.975V76.381C175.329 94.851 141.051 141.59 141.051 196.346C141.051 211.512 143.683 226.072 148.517 239.583C170.061 299.864 175.042 364.731 161.211 426.99H369.99V420.18C369.99 387.611 359.125 355.77 338.36 330.691C319.819 308.269 307.496 281.2 302.886 252.264C306.928 249.594 310.722 246.566 314.233 243.254L337.507 266.541C353.23 282.263 378.704 282.263 394.427 266.541L418.653 242.315C434.376 226.592 434.376 201.117 418.653 185.395V185.395Z" fill="#665E66"/>
<path d="M279.828 69.428C284.34 70.252 288.791 71.416 293.138 72.91C233.944 82.934 189.193 133.237 187.843 193.421C187.822 194.4 187.812 195.368 187.812 196.347C187.812 211.522 190.439 226.078 195.27 239.584C216.822 299.87 221.797 364.74 207.972 426.994H161.212C175.037 364.74 170.061 299.87 148.52 239.584C143.689 226.078 141.051 211.522 141.051 196.347C141.051 141.593 175.325 94.854 223.599 76.383V56.984C223.599 41.459 229.894 27.397 240.062 17.219C250.24 7.04097 264.292 0.745972 279.827 0.745972V69.428H279.828Z" fill="#544F57"/>
<path d="M361.487 455.327L264.689 483.664L167.891 455.327C152.241 455.327 139.554 442.64 139.554 426.99C139.554 411.34 152.241 398.653 167.891 398.653H361.487C377.137 398.653 389.824 411.34 389.824 426.99C389.824 442.64 377.137 455.327 361.487 455.327Z" fill="#80B4FB"/>
<path d="M249.33 455.33H167.884C152.235 455.33 139.554 442.638 139.554 426.989C139.554 419.16 142.727 412.082 147.847 406.952C152.977 401.822 160.055 398.649 167.884 398.649H249.33C241.501 398.649 234.424 401.822 229.293 406.952C224.173 412.082 221 419.16 221 426.989C221 442.638 233.682 455.33 249.33 455.33V455.33Z" fill="#61A2F9"/>
<path d="M314.953 162.361C312.976 162.361 310.998 161.606 309.489 160.098L292.697 143.306C289.68 140.289 289.68 135.397 292.697 132.379C295.715 129.362 300.606 129.362 303.625 132.379L320.417 149.171C323.434 152.188 323.434 157.08 320.417 160.098C318.907 161.607 316.93 162.361 314.953 162.361V162.361Z" fill="#544F57"/>
<path d="M438.928 512H90.4497C90.4497 480.7 115.824 455.327 147.123 455.327H382.254C413.555 455.327 438.928 480.7 438.928 512Z" fill="#665E66"/>
<path d="M246.894 455.33C231.246 455.33 217.081 461.676 206.82 471.926C196.57 482.187 190.224 496.352 190.224 512H90.4497C90.4497 496.352 96.7957 482.187 107.046 471.926C117.307 461.676 131.482 455.33 147.13 455.33H246.894Z" fill="#544F57"/>
</svg>
