<svg width="512" height="512" viewBox="0 0 512 512" fill="none" xmlns="http://www.w3.org/2000/svg">
<g clip-path="url(#clip0_2_1930)">
<path d="M236.143 512C213.737 512 195.573 493.836 195.573 471.43V40.575C195.573 18.169 213.737 0.00500488 236.143 0.00500488C258.549 0.00500488 276.713 18.169 276.713 40.575V471.43C276.712 493.836 258.549 512 236.143 512V512Z" fill="#AA8080"/>
<path d="M253.779 507.977C248.444 510.558 242.471 511.995 236.151 511.995C213.734 511.995 195.574 493.835 195.574 471.431V40.564C195.573 18.16 213.733 0 236.151 0C242.47 0 248.444 1.437 253.779 4.018C240.196 10.564 230.829 24.467 230.829 40.564V471.43C230.829 487.528 240.195 501.431 253.779 507.977V507.977Z" fill="#9D6B6B"/>
<path d="M445.378 189.327H315.895V192.634C315.895 218.193 295.168 238.92 269.609 238.92H202.678C177.119 238.92 156.392 218.193 156.392 192.634V189.327H26.9079C5.6969 189.327 -5.6561 164.17 8.5299 148.398C39.1569 114.35 79.9109 90.81 124.817 81.343C135.263 79.128 145.946 77.686 156.773 77.047C157.69 76.995 158.607 76.944 159.524 76.903C166.23 59.606 183.012 47.337 202.678 47.337H269.609C289.275 47.337 306.057 59.606 312.763 76.903C371.154 79.602 425.393 105.748 463.757 148.398C477.942 164.17 466.59 189.327 445.378 189.327V189.327Z" fill="#F9F6F6"/>
<path d="M445.369 189.331H315.894V192.63C315.894 218.187 295.166 238.915 269.609 238.915H202.676C177.106 238.915 156.391 218.187 156.391 192.63V189.331H26.9019C5.68195 189.331 -5.66605 164.173 8.52895 148.394C9.04795 147.822 9.56695 147.237 10.0989 146.678C14.3559 150.696 20.1169 153.263 26.9019 153.263H156.391V156.562C156.391 182.119 177.105 202.847 202.676 202.847H269.609C295.166 202.847 315.894 182.119 315.894 156.562V153.263H445.369C452.154 153.263 457.915 150.695 462.172 146.678C462.704 147.237 463.223 147.822 463.742 148.394C477.937 164.173 466.589 189.331 445.369 189.331V189.331Z" fill="#DDDAEC"/>
<path d="M381.777 512C452.469 512 509.776 454.693 509.776 384.001C509.776 313.309 452.469 256.002 381.777 256.002C311.085 256.002 253.778 313.309 253.778 384.001C253.778 454.693 311.085 512 381.777 512Z" fill="#FFE07D"/>
<path d="M391.787 511.611C388.485 511.867 385.143 511.998 381.775 511.998C311.083 511.998 253.778 454.692 253.778 384.001C253.778 313.31 311.084 256.004 381.775 256.004C385.143 256.004 388.484 256.135 391.787 256.391C325.77 261.492 273.795 316.677 273.795 384.001C273.795 451.325 325.77 506.51 391.787 511.611Z" fill="#FFC250"/>
<path d="M381.777 475.901C432.532 475.901 473.677 434.756 473.677 384.001C473.677 333.246 432.532 292.101 381.777 292.101C331.022 292.101 289.877 333.246 289.877 384.001C289.877 434.756 331.022 475.901 381.777 475.901Z" fill="#FFC250"/>
<path d="M380.933 316.69L339.63 370.947C332.271 380.614 339.165 394.526 351.314 394.526H372.933V444.976C372.933 455.228 386.147 459.364 391.992 450.942L424.305 404.381C431.063 394.643 424.094 381.324 412.241 381.324H399.721V323.028C399.722 313.01 387.001 308.719 380.933 316.69Z" fill="#FFE07D"/>
<path d="M156.773 77.047V188.945H124.817V81.343C135.263 79.128 145.946 77.686 156.773 77.047V77.047Z" fill="#DDDAEC"/>
</g>
<defs>
<clipPath id="clip0_2_1930">
<rect width="512" height="512" fill="white"/>
</clipPath>
</defs>
</svg>
