<?xml version="1.0"?>
<svg xmlns="http://www.w3.org/2000/svg" xmlns:xlink="http://www.w3.org/1999/xlink" xmlnsSvgJs="http://svgjs.com/svgjs" version="1.1" width="512" height="512" x="0" y="0" viewBox="0 0 24 24" style="enable-background:new 0 0 512 512" xml:space="preserve"><g><path xmlns="http://www.w3.org/2000/svg" d="m22 4v1h-17a1 1 0 0 0 0 2h16a1 1 0 0 1 1 1v11a2 2 0 0 1 -2 2h-7v-6.586l1.293 1.293a1 1 0 0 0 1.414-1.414l-3-3a1 1 0 0 0 -1.416 0l-3 3a1 1 0 0 0 1.414 1.414l1.295-1.293v6.586h-7a2 2 0 0 1 -2-2v-14a2 2 0 0 1 2-2h17a1 1 0 0 1 1 1z" fill="#ffffff" data-original="#000000"/></g></svg>
