<svg width="234" height="203" viewBox="0 0 234 203" fill="none" xmlns="http://www.w3.org/2000/svg">
<g clip-path="url(#clip0_3_9619)">
<path d="M216.655 188.139L222.959 186.141C223.744 182.759 223.692 179.238 222.807 175.881C220.275 181.509 212.845 182.888 208.612 187.38C207.302 188.791 206.327 190.478 205.759 192.317C205.19 194.156 205.043 196.1 205.329 198.003L204.003 202.5C207.1 202.235 210.103 201.303 212.805 199.766C215.507 198.23 217.844 196.127 219.654 193.601C220.656 192.174 221.474 190.626 222.088 188.995C219.4 188.726 216.655 188.139 216.655 188.139Z" fill="#1b071e"/>
<path d="M209.92 179.825L214.67 175.226C213.864 171.849 212.246 168.721 209.956 166.111C210.201 172.277 204.166 176.823 202.382 182.73C201.839 184.577 201.719 186.522 202.031 188.421C202.343 190.321 203.079 192.126 204.183 193.702L205.003 198.318C207.657 196.7 209.929 194.527 211.662 191.948C213.395 189.368 214.547 186.444 215.041 183.376C215.3 181.652 215.342 179.903 215.164 178.169C212.638 179.126 209.92 179.825 209.92 179.825Z" fill="#1b071e"/>
<path d="M178.344 13.4785H0.691077C0.506298 13.4746 0.330411 13.3985 0.201114 13.2665C0.0718169 13.1345 -0.000595093 12.9571 -0.000595093 12.7724C-0.000595093 12.5877 0.0718169 12.4103 0.201114 12.2783C0.330411 12.1463 0.506298 12.0702 0.691077 12.0663H178.344C178.529 12.0702 178.705 12.1463 178.834 12.2783C178.964 12.4103 179.036 12.5877 179.036 12.7724C179.036 12.9571 178.964 13.1345 178.834 13.2665C178.705 13.3985 178.529 13.4746 178.344 13.4785V13.4785Z" fill="#E6E7E8"/>
<path d="M12.7842 8.46094C15.0708 8.46094 16.9244 6.56689 16.9244 4.23047C16.9244 1.89405 15.0708 0 12.7842 0C10.4975 0 8.64386 1.89405 8.64386 4.23047C8.64386 6.56689 10.4975 8.46094 12.7842 8.46094Z" fill="#EA695E"/>
<path d="M27.087 8.46094C29.3736 8.46094 31.2273 6.56689 31.2273 4.23047C31.2273 1.89405 29.3736 0 27.087 0C24.8003 0 22.9467 1.89405 22.9467 4.23047C22.9467 6.56689 24.8003 8.46094 27.087 8.46094Z" fill="#F2BE50"/>
<path d="M41.3898 8.46094C43.6764 8.46094 45.5301 6.56689 45.5301 4.23047C45.5301 1.89405 43.6764 0 41.3898 0C39.1032 0 37.2495 1.89405 37.2495 4.23047C37.2495 6.56689 39.1032 8.46094 41.3898 8.46094Z" fill="#66C554"/>
<path d="M169.733 1.04858H159.573C159.371 1.05259 159.18 1.13536 159.039 1.27913C158.898 1.42289 158.819 1.61618 158.819 1.8175C158.819 2.01881 158.898 2.2121 159.039 2.35587C159.18 2.49963 159.371 2.5824 159.573 2.58641H169.733C169.934 2.5824 170.126 2.49963 170.267 2.35587C170.408 2.2121 170.487 2.01881 170.487 1.8175C170.487 1.61618 170.408 1.42289 170.267 1.27913C170.126 1.13536 169.934 1.05259 169.733 1.04858V1.04858Z" fill="#E6E7E8"/>
<path d="M169.733 3.93481H159.573C159.371 3.9388 159.18 4.02156 159.039 4.16533C158.898 4.30909 158.819 4.50239 158.819 4.70373C158.819 4.90506 158.898 5.09837 159.039 5.24213C159.18 5.3859 159.371 5.46866 159.573 5.47264H169.733C169.934 5.46866 170.126 5.3859 170.267 5.24213C170.408 5.09837 170.487 4.90506 170.487 4.70373C170.487 4.50239 170.408 4.30909 170.267 4.16533C170.126 4.02156 169.934 3.9388 169.733 3.93481V3.93481Z" fill="#E6E7E8"/>
<path d="M169.733 6.81732H159.573C159.371 6.8213 159.18 6.90406 159.039 7.04783C158.898 7.19159 158.819 7.3849 158.819 7.58623C158.819 7.78757 158.898 7.98087 159.039 8.12463C159.18 8.2684 159.371 8.35116 159.573 8.35515H169.733C169.934 8.35116 170.126 8.2684 170.267 8.12463C170.408 7.98087 170.487 7.78757 170.487 7.58623C170.487 7.3849 170.408 7.19159 170.267 7.04783C170.126 6.90406 169.934 6.8213 169.733 6.81732V6.81732Z" fill="#E6E7E8"/>
<path d="M13.7625 42.1679C16.5895 42.1679 18.8812 39.8774 18.8812 37.0518C18.8812 34.2262 16.5895 31.9357 13.7625 31.9357C10.9356 31.9357 8.64386 34.2262 8.64386 37.0518C8.64386 39.8774 10.9356 42.1679 13.7625 42.1679Z" fill="#E6E7E8"/>
<path d="M144.11 48.3806H10.1682C9.76393 48.3806 9.37623 48.2201 9.09038 47.9344C8.80453 47.6487 8.64395 47.2612 8.64395 46.8572C8.64395 46.4531 8.80453 46.0656 9.09038 45.7799C9.37623 45.4942 9.76393 45.3337 10.1682 45.3337H144.11C144.514 45.3337 144.902 45.4942 145.188 45.7799C145.473 46.0656 145.634 46.4531 145.634 46.8572C145.634 47.2612 145.473 47.6487 145.188 47.9344C144.902 48.2201 144.514 48.3806 144.11 48.3806V48.3806Z" fill="#E6E7E8"/>
<path d="M108.981 54.4007H10.1682C9.7639 54.4007 9.37619 54.2402 9.09032 53.9545C8.80446 53.6688 8.64386 53.2813 8.64386 52.8772C8.64386 52.4731 8.80446 52.0856 9.09032 51.7999C9.37619 51.5141 9.7639 51.3536 10.1682 51.3536H108.981C109.385 51.3536 109.773 51.5141 110.059 51.7999C110.345 52.0856 110.505 52.4731 110.505 52.8772C110.505 53.2813 110.345 53.6688 110.059 53.9545C109.773 54.2402 109.385 54.4007 108.981 54.4007V54.4007Z" fill="#E6E7E8"/>
<path d="M13.7625 122.023C16.5895 122.023 18.8812 119.732 18.8812 116.907C18.8812 114.081 16.5895 111.79 13.7625 111.79C10.9356 111.79 8.64386 114.081 8.64386 116.907C8.64386 119.732 10.9356 122.023 13.7625 122.023Z" fill="#E6E7E8"/>
<path d="M144.11 128.235H10.1682C9.9678 128.236 9.76933 128.197 9.58412 128.12C9.39891 128.044 9.23059 127.932 9.08879 127.79C8.947 127.649 8.83451 127.481 8.75776 127.296C8.681 127.111 8.64149 126.912 8.64149 126.712C8.64149 126.512 8.681 126.313 8.75776 126.128C8.83451 125.943 8.947 125.775 9.08879 125.634C9.23059 125.492 9.39891 125.38 9.58412 125.304C9.76933 125.227 9.9678 125.188 10.1682 125.188H144.11C144.534 125.212 144.935 125.394 145.233 125.697C145.53 126.001 145.704 126.405 145.719 126.829C145.706 127.028 145.654 127.221 145.567 127.399C145.479 127.578 145.357 127.737 145.207 127.867C145.058 127.998 144.884 128.098 144.695 128.161C144.507 128.224 144.308 128.249 144.11 128.235V128.235Z" fill="#E6E7E8"/>
<path d="M108.981 134.255H10.1682C9.7639 134.255 9.37619 134.095 9.09032 133.809C8.80446 133.524 8.64386 133.136 8.64386 132.732C8.64386 132.328 8.80446 131.94 9.09032 131.655C9.37619 131.369 9.7639 131.208 10.1682 131.208H108.981C109.385 131.208 109.773 131.369 110.059 131.655C110.345 131.94 110.505 132.328 110.505 132.732C110.505 133.136 110.345 133.524 110.059 133.809C109.773 134.095 109.385 134.255 108.981 134.255V134.255Z" fill="#E6E7E8"/>
<path d="M13.7625 79.0853C16.5895 79.0853 18.8812 76.7947 18.8812 73.9692C18.8812 71.1436 16.5895 68.853 13.7625 68.853C10.9356 68.853 8.64386 71.1436 8.64386 73.9692C8.64386 76.7947 10.9356 79.0853 13.7625 79.0853Z" fill="#E6E7E8"/>
<path d="M144.11 85.2981H10.1682C9.76393 85.2981 9.37623 85.1375 9.09038 84.8518C8.80453 84.5661 8.64395 84.1786 8.64395 83.7746C8.64395 83.3705 8.80453 82.983 9.09038 82.6973C9.37623 82.4116 9.76393 82.2511 10.1682 82.2511H144.11C144.514 82.2511 144.902 82.4116 145.188 82.6973C145.473 82.983 145.634 83.3705 145.634 83.7746C145.634 84.1786 145.473 84.5661 145.188 84.8518C144.902 85.1375 144.514 85.2981 144.11 85.2981V85.2981Z" fill="#E6E7E8"/>
<path d="M125.457 91.3181H10.1682C9.7639 91.3181 9.37619 91.1576 9.09032 90.8719C8.80446 90.5861 8.64386 90.1986 8.64386 89.7946C8.64386 89.3905 8.80446 89.0029 9.09032 88.7172C9.37619 88.4315 9.7639 88.271 10.1682 88.271H125.457C125.862 88.271 126.249 88.4315 126.535 88.7172C126.821 89.0029 126.982 89.3905 126.982 89.7946C126.982 90.1986 126.821 90.5861 126.535 90.8719C126.249 91.1576 125.862 91.3181 125.457 91.3181V91.3181Z" fill="#E6E7E8"/>
<path d="M117.632 97.3381H10.1682C9.7639 97.3381 9.37619 97.1776 9.09032 96.8919C8.80446 96.6062 8.64386 96.2187 8.64386 95.8146C8.64386 95.4105 8.80446 95.023 9.09032 94.7373C9.37619 94.4515 9.7639 94.291 10.1682 94.291H117.632C118.037 94.291 118.424 94.4515 118.71 94.7373C118.996 95.023 119.157 95.4105 119.157 95.8146C119.157 96.2187 118.996 96.6062 118.71 96.8919C118.424 97.1776 118.037 97.3381 117.632 97.3381V97.3381Z" fill="#E6E7E8"/>
<path d="M119.856 164.691C140.791 164.691 157.762 147.728 157.762 126.804C157.762 105.879 140.791 88.916 119.856 88.916C98.9209 88.916 81.9497 105.879 81.9497 126.804C81.9497 147.728 98.9209 164.691 119.856 164.691Z" fill="#880E4F"/>
<path d="M119.804 140.023C122.795 140.023 125.219 137.599 125.219 134.61C125.219 131.621 122.795 129.198 119.804 129.198C116.813 129.198 114.389 131.621 114.389 134.61C114.389 137.599 116.813 140.023 119.804 140.023Z" fill="#680d3e"/>
<path d="M119.804 137.108C121.184 137.108 122.303 135.99 122.303 134.61C122.303 133.23 121.184 132.112 119.804 132.112C118.424 132.112 117.305 133.23 117.305 134.61C117.305 135.99 118.424 137.108 119.804 137.108Z" fill="#880E4F"/>
<path d="M129.856 146.658H109.856C107.876 146.656 105.977 145.869 104.577 144.469C103.176 143.07 102.389 141.172 102.386 139.193V130.027C102.389 128.048 103.176 126.15 104.577 124.751C105.977 123.351 107.876 122.564 109.856 122.561H129.856C131.836 122.564 133.735 123.351 135.135 124.751C136.536 126.15 137.323 128.048 137.326 130.027V139.193C137.323 141.172 136.536 143.07 135.135 144.469C133.735 145.869 131.836 146.656 129.856 146.658V146.658ZM109.856 123.343C108.083 123.345 106.383 124.05 105.129 125.303C103.876 126.556 103.17 128.255 103.168 130.027V139.193C103.17 140.965 103.876 142.664 105.129 143.917C106.383 145.17 108.083 145.875 109.856 145.877H129.856C131.629 145.875 133.329 145.17 134.583 143.917C135.836 142.664 136.542 140.965 136.544 139.193V130.027C136.542 128.255 135.836 126.556 134.583 125.303C133.329 124.05 131.629 123.345 129.856 123.343L109.856 123.343Z" fill="white"/>
<path d="M108.671 141.683H126.424C127.345 141.683 128.257 141.502 129.109 141.149C129.96 140.797 130.733 140.28 131.385 139.629C132.037 138.978 132.553 138.205 132.906 137.354C133.259 136.503 133.44 135.591 133.44 134.67V127C133.439 126.15 133.282 125.306 132.977 124.512C133.843 125.164 134.546 126.008 135.03 126.978C135.514 127.947 135.766 129.016 135.766 130.1V137.77C135.766 138.691 135.584 139.603 135.232 140.453C134.879 141.304 134.362 142.077 133.711 142.729C133.059 143.38 132.286 143.896 131.434 144.249C130.583 144.601 129.671 144.783 128.749 144.783H110.997C109.575 144.782 108.186 144.349 107.015 143.54C105.845 142.732 104.948 141.587 104.444 140.258C105.659 141.183 107.144 141.684 108.671 141.683Z" fill="#680d3e"/>
<path d="M163.034 197.988L158.672 197.987L156.597 181.17L163.035 181.17L163.034 197.988Z" fill="#A0616A"/>
<path d="M163.188 202.536L149.774 202.535V202.366C149.774 200.982 150.324 199.655 151.303 198.676C152.282 197.697 153.61 197.147 154.995 197.147H154.995L157.445 195.289L162.017 197.148L163.188 197.148L163.188 202.536Z" fill="#2F2E41"/>
<path d="M193.9 197.988L198.262 197.987L200.337 181.17L193.899 181.17L193.9 197.988Z" fill="#A0616A"/>
<path d="M193.746 202.536L207.16 202.535V202.366C207.16 200.982 206.61 199.655 205.631 198.676C204.652 197.697 203.324 197.147 201.939 197.147H201.939L199.488 195.289L194.917 197.148L193.746 197.148L193.746 202.536Z" fill="#2F2E41"/>
<path d="M156.405 168.812C156.469 167.852 156.982 162.545 156.982 162.545L158.209 151.29L160.371 121.457L160.512 119.504L171.84 117.33L179.582 113.62L188.784 116.56L195.949 119.246C195.949 119.246 195.961 120.396 196.017 121.785C196.09 123.603 196.219 125.831 196.526 126.411C197.038 127.435 196.909 132.932 196.909 132.932C196.909 132.932 197.418 144.116 198.06 145.343C198.701 146.569 198.829 149.123 198.636 149.635C198.443 150.147 199.277 163.578 199.277 163.578C199.277 163.578 201.419 187.347 200.075 190.931C198.732 194.515 193.655 192.167 193.655 192.167C193.655 192.167 193.9 191.211 192.428 190.76C190.956 190.309 186.471 156.606 186.471 156.606C186.471 156.606 185.637 149.696 184.87 147.715C184.103 145.735 183.398 140.17 183.398 140.17C183.398 140.17 178.662 130.961 178.6 128.913C178.6 128.913 177.981 126.996 177.395 129.106C176.809 131.215 175.082 136.268 175.082 136.268L173.398 142.473L171.417 151.744L170.134 159.55C170.134 159.55 168.214 169.909 167.907 170.357C167.601 170.804 167.907 180.269 167.907 180.269C167.907 180.269 166.423 188.329 164.325 189.736C162.227 191.143 156.668 189.758 156.668 189.758C156.668 189.758 156.341 169.771 156.405 168.812Z" fill="#2F2E41"/>
<path d="M161.238 92.2941L163.756 99.8761L160.649 103.573L162.017 104.981L161.008 106.97L158.376 127.824L172.805 133.294L177.663 127.205L181.495 133.294L198.19 129.216L193.932 102.623V100.884L192.73 97.5274V90.4207L195.905 69.2665L186.43 65.9493L181.899 62.3655L180.433 67.4056L174.191 66.296L174.028 62.5093L169.253 67.0195L165.231 68.1659L160.416 69.2665L159.802 70.7995L161.029 70.493L160.83 90.4364L161.238 92.2941Z" fill="#2F2E41"/>
<path d="M156.925 120.035L159.348 96.5906L159.988 86.9416L153.205 85.7158C153.205 85.7158 153.474 92.6151 152.585 96.5078C151.708 100.349 152.469 119.52 152.523 120.033C152.025 120.478 151.674 121.064 151.516 121.713C151.358 122.362 151.401 123.044 151.64 123.668C151.878 124.292 152.3 124.829 152.85 125.208C153.4 125.587 154.053 125.79 154.721 125.79C155.389 125.79 156.042 125.588 156.592 125.21C157.143 124.831 157.566 124.295 157.805 123.671C158.043 123.047 158.087 122.365 157.93 121.716C157.773 121.067 157.422 120.481 156.925 120.035V120.035Z" fill="#A0616A"/>
<path d="M150.309 101.449L152.195 101.838L158.667 103.178L159.026 103.251L159.79 100.216L160.676 99.2719L162.363 90.4362L162.452 89.9763L165.001 84.5313L166.765 68.1659L160.207 69.3432C160.173 69.3769 160.142 69.4137 160.112 69.4505C159.17 70.5174 158.498 72.0012 157.4 73.4943C153.827 78.3537 151.085 90.1602 151.192 96.6292C151.195 96.7334 151.088 96.8468 150.959 96.9633C150.351 97.5221 149.954 98.2733 149.836 99.0904C149.717 99.9075 149.884 100.74 150.309 101.449Z" fill="#2F2E41"/>
<path d="M199.089 120.035L196.666 96.5906L196.026 86.9416L202.809 85.7158C202.809 85.7158 202.54 92.6151 203.429 96.5078C204.305 100.349 203.545 119.52 203.491 120.033C203.989 120.478 204.34 121.064 204.498 121.713C204.655 122.362 204.612 123.044 204.374 123.668C204.136 124.292 203.714 124.829 203.163 125.208C202.613 125.587 201.961 125.79 201.293 125.79C200.624 125.79 199.972 125.588 199.421 125.21C198.871 124.831 198.448 124.295 198.209 123.671C197.97 123.047 197.926 122.365 198.084 121.716C198.241 121.067 198.591 120.481 199.089 120.035V120.035Z" fill="#A0616A"/>
<path d="M205.705 101.449L203.819 101.838L197.346 103.178L196.988 103.251L196.224 100.216L195.337 99.2719L193.65 90.4362L193.561 89.9763L191.012 84.5314L191.595 68.1659L195.807 69.3432C195.841 69.3769 195.871 69.4137 195.902 69.4505C196.844 70.5174 197.515 72.0012 198.613 73.4943C202.187 78.3537 204.929 90.1602 204.822 96.6292C204.818 96.7334 204.926 96.8468 205.055 96.9633C205.663 97.5221 206.06 98.2733 206.178 99.0904C206.296 99.9075 206.129 100.74 205.705 101.449V101.449Z" fill="#2F2E41"/>
<path d="M170.947 70.5873L174.028 62.5094L181.899 62.3654L184.511 70.5873L193.899 123.003C193.899 123.003 165.139 131.008 165.431 121.386C165.737 111.269 167.121 97.8294 167.121 97.8294L170.947 70.5873Z" fill="#880E4F"/>
<path d="M177.788 60.25C182.909 60.25 187.06 56.1009 187.06 50.9827C187.06 45.8645 182.909 41.7154 177.788 41.7154C172.667 41.7154 168.516 45.8645 168.516 50.9827C168.516 56.1009 172.667 60.25 177.788 60.25Z" fill="#A0616A"/>
<path d="M167.969 44.2598C169.479 42.6177 171.367 39.6117 177.086 38.3494C184.152 36.7897 187.491 43.1702 185.709 43.2748C190.92 44.8519 187.573 55.6301 186.079 54.7262C186.066 54.7173 186.054 54.7076 186.042 54.6974C185.238 54.106 184.564 53.3571 184.06 52.4965C183.556 51.6358 183.233 50.6815 183.11 49.6918L182.827 47.1413C182.786 49.2164 180.664 49.491 178.496 48.7267C178.624 48.2717 178.869 47.858 179.206 47.5264C179.543 47.1947 179.96 46.9567 180.418 46.8356C178.906 48.205 176.987 49.0399 174.954 49.2117C175.06 48.6921 175.277 48.2013 175.589 47.7723C175.901 47.3432 176.301 46.9859 176.763 46.7242L176.677 46.6402C175.83 47.3538 174.858 47.9039 173.811 48.2624C172.616 48.6048 171.184 48.4195 170.365 47.4845C170.144 47.2265 169.978 46.9269 169.875 46.6035C170.052 48.2469 168.949 50.1229 168.092 49.8009C167.38 49.6624 166.964 45.353 167.969 44.2598Z" fill="#2F2E41"/>
<path d="M234 202.535C234 202.596 233.988 202.657 233.965 202.713C233.942 202.77 233.907 202.821 233.864 202.864C233.821 202.907 233.769 202.942 233.713 202.965C233.656 202.988 233.596 203 233.535 203H123.926C123.803 203 123.684 202.951 123.597 202.864C123.51 202.777 123.461 202.658 123.461 202.535C123.461 202.412 123.51 202.293 123.597 202.206C123.684 202.119 123.803 202.07 123.926 202.07H233.535C233.596 202.07 233.656 202.081 233.713 202.105C233.769 202.128 233.821 202.162 233.864 202.206C233.907 202.249 233.942 202.3 233.965 202.357C233.988 202.413 234 202.474 234 202.535Z" fill="#CCCCCC"/>
<path d="M120.164 106.261C116.456 106.261 113.197 107.938 111.352 110.456C113.325 109.021 115.706 108.258 118.146 108.278C123.887 108.278 128.558 112.297 128.558 117.238V121.345H130.576V115.221C130.576 110.28 125.905 106.261 120.164 106.261Z" fill="#680d3e"/>
<path d="M131.963 123.447H107.749V116.327C107.749 110.582 113.18 105.908 119.856 105.908C126.532 105.908 131.963 110.582 131.963 116.327V123.447ZM108.531 122.666H131.18V116.327C131.18 111.013 126.1 106.689 119.856 106.689C113.611 106.689 108.531 111.013 108.531 116.327V122.666Z" fill="white"/>
<path d="M126.057 120.729H113.655C113.097 120.728 112.562 120.506 112.167 120.112C111.773 119.718 111.551 119.183 111.55 118.625V115.791C111.55 111.84 115.276 108.626 119.856 108.626C124.436 108.626 128.161 111.841 128.161 115.791V118.625C128.161 119.183 127.939 119.718 127.544 120.112C127.15 120.506 126.615 120.728 126.057 120.729V120.729ZM119.856 109.408C115.707 109.408 112.333 112.271 112.333 115.791V118.625C112.333 118.976 112.472 119.312 112.72 119.559C112.968 119.807 113.304 119.947 113.655 119.947H126.057C126.408 119.947 126.744 119.807 126.992 119.559C127.24 119.312 127.379 118.976 127.379 118.625V115.791C127.379 112.271 124.004 109.408 119.856 109.408Z" fill="white"/>
</g>
<defs>
<clipPath id="clip0_3_9619">
<rect width="234" height="203" fill="white"/>
</clipPath>
</defs>
</svg>
