<?xml version="1.0"?>
<svg xmlns="http://www.w3.org/2000/svg" xmlns:xlink="http://www.w3.org/1999/xlink" xmlnsSvgJs="http://svgjs.com/svgjs" version="1.1" width="512" height="512" x="0" y="0" viewBox="0 0 64 64" style="enable-background:new 0 0 512 512" xml:space="preserve" class=""><g><g xmlns="http://www.w3.org/2000/svg" id="Expand-Resize-Arrow-Arrows-Direction"><path d="m61 31v24a6 6 0 0 1 -6 6h-46a6 6 0 0 1 -6-6v-46a6 6 0 0 1 6-6h24a3 3 0 0 1 0 6h-22a2.006 2.006 0 0 0 -2 2v42a2.006 2.006 0 0 0 2 2h42a2.006 2.006 0 0 0 2-2v-22a3 3 0 0 1 6 0z" fill="#006201" data-original="#000000" class=""/><path d="m61 5v14a3 3 0 0 1 -6 0v-5.76l-18.04 18.04a3 3 0 0 1 -4.24-4.24l18.04-18.04h-5.76a3 3 0 0 1 0-6h14a2.006 2.006 0 0 1 2 2z" fill="#006201" data-original="#000000" class=""/></g></g></svg>
