<svg width="123" height="123" viewBox="0 0 123 123" fill="none" xmlns="http://www.w3.org/2000/svg">
<g clip-path="url(#clip0_9_9869)">
<path d="M98.1283 45.3792C97.626 44.8769 97.3749 44.2211 97.3749 43.565C97.3749 42.9089 97.626 42.2531 98.1283 41.7507C99.1277 40.7514 100.752 40.7514 101.752 41.7507L121.457 61.4565C122.365 61.8509 123 62.753 123 63.8088C123 63.855 122.974 63.8908 122.974 63.9369C123.01 64.6391 122.785 65.3463 122.247 65.8792L101.747 86.3791C100.747 87.3785 99.1226 87.3785 98.1232 86.3791C97.1239 85.3798 97.1239 83.755 98.1232 82.7557L114.508 66.3709L2.56258 66.3709C1.14808 66.3709 0 65.2229 0 63.8084C0 62.3939 1.14808 61.2458 2.56258 61.2458L113.995 61.2458L98.1283 45.3792Z" fill="url(#paint0_linear_9_9869)"/>
<path d="M80.4573 97.3365C81.3645 97.7259 81.9999 98.628 81.9999 99.6838C81.9999 99.7249 81.9742 99.7657 81.9742 99.8068C82.01 100.509 81.7846 101.216 81.2515 101.749L60.7516 122.249C59.7522 123.249 58.1275 123.249 57.1282 122.249C56.1288 121.25 56.1288 119.625 57.1282 118.626L73.5076 102.246L2.56226 102.246C1.14776 102.246 -0.000319163 101.098 -0.000319163 99.6838C-0.000319163 98.2693 1.14776 97.1212 2.56226 97.1212L72.9954 97.1212L57.1284 81.2542C56.6261 80.7519 56.375 80.0961 56.375 79.44C56.375 78.7839 56.6261 78.1281 57.1234 77.6257C58.1227 76.6264 59.7474 76.6264 60.7468 77.6257L80.4573 97.3365Z" fill="url(#paint1_linear_9_9869)"/>
<path d="M80.4573 20.4615C81.3645 20.8509 81.9999 21.753 81.9999 22.8088C81.9999 22.8549 81.9742 22.8907 81.9742 22.9368C82.01 23.639 81.7846 24.3463 81.2515 24.8791L60.7516 45.3791C59.7522 46.3784 58.1275 46.3784 57.1282 45.3791C56.1288 44.3797 56.1288 42.755 57.1282 41.7556L73.5129 25.3709L2.56226 25.3709C1.14776 25.3709 -0.000319163 24.2228 -0.000319163 22.8083C-0.000319163 21.3938 1.14776 20.2457 2.56226 20.2457L72.9954 20.2457L57.1284 4.3787C56.6261 3.87637 56.375 3.22053 56.375 2.56445C56.375 1.90837 56.6261 1.25253 57.1234 0.750199C58.1227 -0.249177 59.7474 -0.249177 60.7468 0.750199L80.4573 20.4615Z" fill="url(#paint2_linear_9_9869)"/>
</g>
<defs>
<linearGradient id="paint0_linear_9_9869" x1="92.8953" y1="95.2212" x2="30.2273" y2="32.5272" gradientUnits="userSpaceOnUse">
<stop stop-color="#369CDC"/>
<stop offset="1" stop-color="#AA56D0"/>
</linearGradient>
<linearGradient id="paint1_linear_9_9869" x1="62.1473" y1="120.849" x2="19.9763" y2="78.6526" gradientUnits="userSpaceOnUse">
<stop stop-color="#369CDC"/>
<stop offset="1" stop-color="#AA56D0"/>
</linearGradient>
<linearGradient id="paint2_linear_9_9869" x1="62.1499" y1="43.9764" x2="19.9763" y2="1.7777" gradientUnits="userSpaceOnUse">
<stop stop-color="#369CDC"/>
<stop offset="1" stop-color="#AA56D0"/>
</linearGradient>
<clipPath id="clip0_9_9869">
<rect width="123" height="123" fill="white" transform="matrix(0 -1 -1 0 123 123)"/>
</clipPath>
</defs>
</svg>
