<svg width="512" height="512" viewBox="0 0 512 512" fill="none" xmlns="http://www.w3.org/2000/svg">
<path d="M512 167.483V393.585C512 435.884 477.706 470.178 435.417 470.178H76.599C34.3 470.178 0.00598145 435.884 0.00598145 393.585V167.483L219.158 110.657L512 167.483Z" fill="#80B4FB"/>
<path d="M115.014 470.177H76.609C34.31 470.177 0.0159912 435.883 0.0159912 393.584V167.483L21.953 156.196L38.421 167.483V393.585C38.421 435.883 72.715 470.177 115.014 470.177Z" fill="#61A2F9"/>
<path d="M511.994 118.42V167.487H0V118.42C0 76.121 34.294 41.827 76.593 41.827H435.411C477.71 41.827 511.994 76.121 511.994 118.42V118.42Z" fill="#F9F6F6"/>
<path d="M115.014 41.823C72.715 41.823 38.421 76.117 38.421 118.416V167.483H0.00598145V118.416C0.00598145 76.117 34.3 41.823 76.599 41.823H115.014Z" fill="#DDDAEC"/>
<path d="M68.819 125.597C80.3408 125.597 89.681 116.257 89.681 104.735C89.681 93.2133 80.3408 83.873 68.819 83.873C57.2973 83.873 47.957 93.2133 47.957 104.735C47.957 116.257 57.2973 125.597 68.819 125.597Z" fill="#DF75A5"/>
<path d="M135.143 125.597C146.665 125.597 156.005 116.257 156.005 104.735C156.005 93.2133 146.665 83.873 135.143 83.873C123.621 83.873 114.281 93.2133 114.281 104.735C114.281 116.257 123.621 125.597 135.143 125.597Z" fill="#FFE07D"/>
<path d="M201.468 125.597C212.99 125.597 222.33 116.257 222.33 104.735C222.33 93.2133 212.99 83.873 201.468 83.873C189.946 83.873 180.606 93.2133 180.606 104.735C180.606 116.257 189.946 125.597 201.468 125.597Z" fill="#B3E59F"/>
<path d="M305.905 391.841C305.886 391.841 305.868 391.841 305.849 391.841C303.189 391.821 300.726 390.435 299.33 388.171L226.513 270.128L154.206 374.9C153.012 376.629 151.166 377.798 149.091 378.136C147.019 378.477 144.896 377.954 143.213 376.693L64.185 317.463C60.771 314.904 60.077 310.061 62.637 306.647C65.195 303.233 70.038 302.538 73.453 305.098L146.052 359.51L220.518 251.611C222.001 249.464 224.48 248.217 227.075 248.276C229.684 248.343 232.083 249.722 233.452 251.944L306.011 369.569L378.417 255.915C379.137 254.784 380.139 253.86 381.325 253.234L460.354 211.51C464.132 209.517 468.802 210.962 470.795 214.735C472.787 218.508 471.343 223.182 467.57 225.175L390.35 265.944L312.421 388.267C311.003 390.493 308.544 391.841 305.905 391.841V391.841Z" fill="#FFE07D"/>
<path d="M68.819 332.142C80.3408 332.142 89.681 322.802 89.681 311.28C89.681 299.758 80.3408 290.418 68.819 290.418C57.2973 290.418 47.957 299.758 47.957 311.28C47.957 322.802 57.2973 332.142 68.819 332.142Z" fill="#DF75A5"/>
<path d="M147.848 391.373C159.37 391.373 168.71 382.033 168.71 370.511C168.71 358.989 159.37 349.649 147.848 349.649C136.326 349.649 126.986 358.989 126.986 370.511C126.986 382.033 136.326 391.373 147.848 391.373Z" fill="#DF75A5"/>
<path d="M226.876 276.862C238.398 276.862 247.738 267.522 247.738 256C247.738 244.478 238.398 235.138 226.876 235.138C215.354 235.138 206.014 244.478 206.014 256C206.014 267.522 215.354 276.862 226.876 276.862Z" fill="#DF75A5"/>
<path d="M305.905 404.976C317.427 404.976 326.767 395.636 326.767 384.114C326.767 372.592 317.427 363.252 305.905 363.252C294.383 363.252 285.043 372.592 285.043 384.114C285.043 395.636 294.383 404.976 305.905 404.976Z" fill="#DF75A5"/>
<path d="M384.934 280.927C396.456 280.927 405.796 271.587 405.796 260.065C405.796 248.543 396.456 239.203 384.934 239.203C373.412 239.203 364.072 248.543 364.072 260.065C364.072 271.587 373.412 280.927 384.934 280.927Z" fill="#DF75A5"/>
<path d="M463.963 239.203C475.485 239.203 484.825 229.863 484.825 218.341C484.825 206.819 475.485 197.479 463.963 197.479C452.441 197.479 443.101 206.819 443.101 218.341C443.101 229.863 452.441 239.203 463.963 239.203Z" fill="#DF75A5"/>
<path d="M463.963 381.727H380.44C376.172 381.727 372.714 378.268 372.714 374.001C372.714 369.734 376.173 366.275 380.44 366.275H463.963C468.231 366.275 471.689 369.734 471.689 374.001C471.689 378.268 468.23 381.727 463.963 381.727V381.727Z" fill="#F9F6F6"/>
<path d="M463.963 412.702H417.671C413.403 412.702 409.945 409.243 409.945 404.976C409.945 400.709 413.404 397.25 417.671 397.25H463.963C468.231 397.25 471.689 400.709 471.689 404.976C471.689 409.243 468.23 412.702 463.963 412.702V412.702Z" fill="#DF75A5"/>
<path d="M108.968 217.482H62.676C58.408 217.482 54.95 214.023 54.95 209.756C54.95 205.489 58.409 202.03 62.676 202.03H108.968C113.236 202.03 116.694 205.489 116.694 209.756C116.694 214.023 113.235 217.482 108.968 217.482Z" fill="#665E66"/>
<path d="M144.059 242.864H62.676C58.408 242.864 54.95 239.405 54.95 235.138C54.95 230.871 58.409 227.412 62.676 227.412H144.059C148.327 227.412 151.785 230.871 151.785 235.138C151.786 239.405 148.327 242.864 144.059 242.864Z" fill="#F9F6F6"/>
<path d="M384.934 438.156H68.819C64.551 438.156 61.093 434.697 61.093 430.43C61.093 426.163 64.552 422.704 68.819 422.704H384.934C389.202 422.704 392.66 426.163 392.66 430.43C392.66 434.697 389.201 438.156 384.934 438.156Z" fill="#F9F6F6"/>
</svg>
