<svg width="512" height="512" viewBox="0 0 512 512" fill="none" xmlns="http://www.w3.org/2000/svg">
<path d="M42.743 370.115C35.037 370.115 28.791 363.868 28.791 356.163L28.793 99.5481C28.793 91.8421 35.04 85.5961 42.745 85.5961C50.45 85.5961 56.697 91.8431 56.697 99.5481L56.695 356.163C56.695 363.868 50.449 370.115 42.743 370.115Z" fill="#665E66"/>
<path d="M59.341 188.359H26.144C11.705 188.359 0 200.064 0 214.503V271.537C0 285.976 11.705 297.681 26.144 297.681H59.341C73.78 297.681 85.485 285.976 85.485 271.537V214.503C85.485 200.064 73.78 188.359 59.341 188.359V188.359Z" fill="#B3E59F"/>
<path d="M51.809 297.684H26.147C11.711 297.684 0 285.973 0 271.537V214.504C0 200.059 11.711 188.357 26.147 188.357H51.81C37.374 188.357 25.663 200.058 25.663 214.504V271.537C25.663 285.973 37.374 297.684 51.809 297.684V297.684Z" fill="#95D6A4"/>
<path d="M362.629 510.652C354.923 510.652 348.677 504.405 348.677 496.7L348.679 216.911C348.679 209.205 354.926 202.959 362.631 202.959C370.336 202.959 376.583 209.206 376.583 216.911L376.581 496.7C376.581 504.406 370.335 510.652 362.629 510.652Z" fill="#665E66"/>
<path d="M379.227 305.721H346.03C331.591 305.721 319.886 317.426 319.886 331.865V388.9C319.886 403.339 331.591 415.044 346.03 415.044H379.227C393.666 415.044 405.371 403.339 405.371 388.9V331.866C405.371 317.426 393.666 305.721 379.227 305.721Z" fill="#DF75A5"/>
<path d="M371.695 415.046H346.032C331.596 415.046 319.885 403.335 319.885 388.899V331.866C319.885 317.421 331.596 305.719 346.032 305.719H371.695C357.259 305.719 345.548 317.42 345.548 331.866V388.9C345.549 403.335 357.259 415.046 371.695 415.046Z" fill="#DD5790"/>
<path d="M149.372 339.686C141.666 339.686 135.42 333.439 135.42 325.734L135.969 50.65C135.969 42.944 142.216 36.698 149.921 36.698C157.626 36.698 163.873 42.945 163.873 50.65L163.324 325.734C163.324 333.439 157.077 339.686 149.372 339.686Z" fill="#665E66"/>
<path d="M165.97 90.42H132.773C118.334 90.42 106.629 102.125 106.629 116.564V173.598C106.629 188.037 118.334 199.742 132.773 199.742H165.97C180.409 199.742 192.114 188.037 192.114 173.598V116.564C192.114 102.125 180.409 90.42 165.97 90.42V90.42Z" fill="#B3E59F"/>
<path d="M158.438 199.745H132.775C118.339 199.745 106.628 188.034 106.628 173.598V116.565C106.628 102.12 118.339 90.418 132.775 90.418H158.438C144.002 90.418 132.291 102.119 132.291 116.565V173.598C132.291 188.034 144.002 199.745 158.438 199.745Z" fill="#95D6A4"/>
<path d="M256 456.995C248.294 456.995 242.048 450.748 242.048 443.043V62.286C242.048 54.58 248.295 48.334 256 48.334C263.705 48.334 269.952 54.581 269.952 62.286V443.043C269.953 450.748 263.706 456.995 256 456.995Z" fill="#665E66"/>
<path d="M272.599 160.249H239.402C224.963 160.249 213.258 171.954 213.258 186.393V358.417C213.258 372.856 224.963 384.561 239.402 384.561H272.599C287.038 384.561 298.743 372.856 298.743 358.417V186.393C298.743 171.954 287.038 160.249 272.599 160.249V160.249Z" fill="#DF75A5"/>
<path d="M265.067 384.563H239.404C224.968 384.563 213.257 372.852 213.257 358.416V186.395C213.257 171.95 224.968 160.248 239.404 160.248H265.067C250.631 160.248 238.92 171.949 238.92 186.395V358.417C238.92 372.853 250.631 384.563 265.067 384.563V384.563Z" fill="#DD5790"/>
<path d="M469.258 456.995C461.552 456.995 455.306 450.748 455.306 443.043V15.3C455.306 7.59402 461.553 1.34802 469.258 1.34802C476.963 1.34802 483.21 7.59402 483.21 15.3V443.043C483.21 450.748 476.963 456.995 469.258 456.995Z" fill="#665E66"/>
<path d="M485.856 76.848H452.659C438.22 76.848 426.515 88.553 426.515 102.992V358.417C426.515 372.856 438.22 384.561 452.659 384.561H485.856C500.295 384.561 512 372.856 512 358.417V102.992C512 88.553 500.295 76.848 485.856 76.848V76.848Z" fill="#B3E59F"/>
<path d="M478.324 384.563H452.661C438.225 384.563 426.514 372.852 426.514 358.416V102.993C426.514 88.5481 438.225 76.8461 452.661 76.8461H478.324C463.888 76.8461 452.177 88.5471 452.177 102.993V358.417C452.177 372.853 463.888 384.563 478.324 384.563V384.563Z" fill="#95D6A4"/>
</svg>
