<svg width="512" height="512" viewBox="0 0 512 512" fill="none" xmlns="http://www.w3.org/2000/svg">
<path d="M369.543 248.781H284.759C276.225 248.781 269.306 241.862 269.306 233.328C269.306 224.794 276.225 217.875 284.759 217.875H369.543C377.806 217.875 384.527 211.154 384.527 202.892V76.6C384.527 68.066 391.446 61.147 399.98 61.147C408.514 61.147 415.433 68.066 415.433 76.6V202.892C415.432 228.195 394.847 248.781 369.543 248.781V248.781Z" fill="#665E66"/>
<path d="M399.98 461.154C391.446 461.154 384.527 454.235 384.527 445.701V319.41C384.527 311.148 377.806 304.427 369.543 304.427H284.759C276.225 304.427 269.306 297.509 269.306 288.974C269.306 280.439 276.225 273.521 284.759 273.521H369.543C394.847 273.521 415.432 294.107 415.432 319.41V445.702C415.432 454.236 408.514 461.154 399.98 461.154V461.154Z" fill="#665E66"/>
<path d="M142.461 248.781H227.245C235.779 248.781 242.698 241.862 242.698 233.328C242.698 224.794 235.779 217.875 227.245 217.875H142.461C134.198 217.875 127.477 211.154 127.477 202.892V76.6C127.477 68.066 120.558 61.147 112.024 61.147C103.49 61.147 96.572 68.066 96.572 76.6V202.892C96.572 228.195 117.158 248.781 142.461 248.781Z" fill="#665E66"/>
<path d="M112.025 461.154C120.559 461.154 127.478 454.235 127.478 445.701V319.41C127.478 311.148 134.199 304.427 142.462 304.427H227.246C235.78 304.427 242.699 297.509 242.699 288.974C242.699 280.439 235.78 273.521 227.246 273.521H142.462C117.158 273.521 96.573 294.107 96.573 319.41V445.702C96.572 454.236 103.491 461.154 112.025 461.154V461.154Z" fill="#665E66"/>
<path d="M197.795 25.971V129.607L123.993 147.213L25.5701 129.607V25.971C25.5691 11.631 37.2001 0 51.5401 0H171.824C186.164 0 197.795 11.631 197.795 25.971V25.971Z" fill="#F9F6F6"/>
<path d="M132.853 145.101L123.993 147.213L25.5701 129.607V25.971C25.5701 11.631 37.2001 0 51.5401 0H72.2261C57.8861 0 46.2551 11.631 46.2551 25.971V129.607L132.853 145.101Z" fill="#DDDAEC"/>
<path d="M197.795 119.759V129.607L123.992 147.213L25.5691 129.607V119.759H197.795Z" fill="#DDDAEC"/>
<path d="M204.507 129.605H18.853C9.13005 129.605 1.24805 137.487 1.24805 147.21C1.24805 156.933 9.13005 164.815 18.853 164.815H204.507C214.23 164.815 222.112 156.933 222.112 147.21C222.112 137.487 214.23 129.605 204.507 129.605Z" fill="#F9F6F6"/>
<path d="M57.867 159.665C61.05 162.848 65.449 164.816 70.312 164.816H18.854C14.002 164.816 9.59305 162.848 6.40905 159.665C3.22605 156.471 1.24805 152.072 1.24805 147.21C1.24805 137.485 9.13905 129.604 18.854 129.604H70.311C60.586 129.604 52.705 137.485 52.705 147.21C52.706 152.072 54.674 156.471 57.867 159.665V159.665Z" fill="#DDDAEC"/>
<path d="M62.2781 114.152C50.5591 114.152 41.0231 104.617 41.0231 92.897V36.707C41.0231 24.987 50.5581 15.452 62.2781 15.452H161.084C172.803 15.452 182.339 24.987 182.339 36.707V92.898C182.339 104.618 172.804 114.153 161.084 114.153H62.2781V114.152Z" fill="#DF75A5"/>
<path d="M86.5981 114.156H62.2761C50.5531 114.156 41.0231 104.617 41.0231 92.903V36.707C41.0231 24.994 50.5521 15.454 62.2761 15.454H86.5991C74.8761 15.454 65.3461 24.993 65.3461 36.707V92.903C65.3461 104.617 74.8751 114.156 86.5981 114.156V114.156Z" fill="#DD5790"/>
<path d="M486.435 25.971V129.607L412.633 147.213L314.21 129.607V25.971C314.209 11.631 325.84 0 340.18 0H460.464C474.804 0 486.435 11.631 486.435 25.971V25.971Z" fill="#F9F6F6"/>
<path d="M421.493 145.101L412.633 147.213L314.209 129.607V25.971C314.209 11.631 325.84 0 340.18 0H360.866C346.526 0 334.895 11.631 334.895 25.971V129.607L421.493 145.101Z" fill="#DDDAEC"/>
<path d="M486.435 119.759V129.607L412.632 147.213L314.209 129.607V119.759H486.435Z" fill="#DDDAEC"/>
<path d="M493.147 129.605H307.493C297.77 129.605 289.888 137.487 289.888 147.21C289.888 156.933 297.77 164.815 307.493 164.815H493.147C502.87 164.815 510.752 156.933 510.752 147.21C510.752 137.487 502.87 129.605 493.147 129.605Z" fill="#F9F6F6"/>
<path d="M346.507 159.665C349.69 162.848 354.089 164.816 358.952 164.816H307.494C302.642 164.816 298.233 162.848 295.049 159.665C291.866 156.471 289.888 152.072 289.888 147.21C289.888 137.485 297.779 129.604 307.494 129.604H358.952C349.227 129.604 341.346 137.485 341.346 147.21C341.346 152.072 343.313 156.471 346.507 159.665Z" fill="#DDDAEC"/>
<path d="M350.918 114.152C339.199 114.152 329.663 104.617 329.663 92.897V36.707C329.663 24.987 339.198 15.452 350.918 15.452H449.724C461.443 15.452 470.979 24.987 470.979 36.707V92.898C470.979 104.618 461.444 114.153 449.724 114.153H350.918V114.152Z" fill="#DF75A5"/>
<path d="M375.238 114.156H350.915C339.192 114.156 329.662 104.617 329.662 92.903V36.707C329.662 24.994 339.191 15.454 350.915 15.454H375.238C363.515 15.454 353.985 24.993 353.985 36.707V92.903C353.986 104.617 363.515 114.156 375.238 114.156Z" fill="#DD5790"/>
<path d="M256.002 336.864C297.817 336.864 331.715 302.966 331.715 261.151C331.715 219.336 297.817 185.438 256.002 185.438C214.187 185.438 180.289 219.336 180.289 261.151C180.289 302.966 214.187 336.864 256.002 336.864Z" fill="#FFE07D"/>
<path d="M269.08 335.736C264.836 336.488 260.468 336.869 256.007 336.869C214.192 336.869 180.289 302.966 180.289 261.151C180.289 219.336 214.192 185.433 256.007 185.433C260.468 185.433 264.836 185.814 269.08 186.566C233.498 192.757 206.445 223.797 206.445 261.151C206.445 298.505 233.498 329.545 269.08 335.736V335.736Z" fill="#FFC250"/>
<path d="M256.002 304.429C279.904 304.429 299.28 285.053 299.28 261.151C299.28 237.249 279.904 217.873 256.002 217.873C232.1 217.873 212.724 237.249 212.724 261.151C212.724 285.053 232.1 304.429 256.002 304.429Z" fill="#DF75A5"/>
<path d="M269.673 302.224C265.377 303.656 260.783 304.428 256.002 304.428C232.102 304.428 212.724 285.05 212.724 261.15C212.724 237.25 232.102 217.872 256.002 217.872C260.782 217.872 265.377 218.645 269.673 220.076C252.469 225.804 240.066 242.029 240.066 261.149C240.066 280.269 252.469 296.496 269.673 302.224Z" fill="#DD5790"/>
<path d="M273.399 266.738C281.11 266.738 287.361 260.487 287.361 252.776C287.361 245.065 281.11 238.814 273.399 238.814C265.688 238.814 259.437 245.065 259.437 252.776C259.437 260.487 265.688 266.738 273.399 266.738Z" fill="white"/>
<path d="M197.795 373.155V476.791L123.993 494.397L25.5701 476.791V373.155C25.5701 358.815 37.2011 347.184 51.5411 347.184H171.825C186.164 347.184 197.795 358.815 197.795 373.155Z" fill="#F9F6F6"/>
<path d="M132.853 492.285L123.993 494.397L25.5701 476.791V373.155C25.5701 358.815 37.2011 347.184 51.5411 347.184H72.2271C57.8871 347.184 46.2561 358.815 46.2561 373.155V476.791L132.853 492.285Z" fill="#DDDAEC"/>
<path d="M197.795 466.943V476.791L123.992 494.397L25.5691 476.791V466.943H197.795Z" fill="#DDDAEC"/>
<path d="M204.507 476.789H18.853C9.13005 476.789 1.24805 484.671 1.24805 494.394C1.24805 504.117 9.13005 511.999 18.853 511.999H204.507C214.23 511.999 222.112 504.117 222.112 494.394C222.112 484.671 214.23 476.789 204.507 476.789Z" fill="#F9F6F6"/>
<path d="M57.867 506.849C61.05 510.032 65.449 512 70.312 512H18.854C14.002 512 9.59305 510.032 6.40905 506.849C3.22605 503.655 1.24805 499.256 1.24805 494.394C1.24805 484.669 9.13905 476.788 18.854 476.788H70.311C60.586 476.788 52.705 484.669 52.705 494.394C52.706 499.257 54.674 503.655 57.867 506.849V506.849Z" fill="#DDDAEC"/>
<path d="M62.2781 461.337C50.5591 461.337 41.0231 451.802 41.0231 440.082V383.891C41.0231 372.171 50.5581 362.636 62.2781 362.636H161.084C172.803 362.636 182.339 372.171 182.339 383.891V440.082C182.339 451.802 172.804 461.337 161.084 461.337H62.2781Z" fill="#DF75A5"/>
<path d="M86.5981 461.341H62.2761C50.5531 461.341 41.0231 451.802 41.0231 440.088V383.892C41.0231 372.179 50.5521 362.639 62.2761 362.639H86.5991C74.8761 362.639 65.3461 372.178 65.3461 383.892V440.088C65.3461 451.801 74.8751 461.341 86.5981 461.341V461.341Z" fill="#DD5790"/>
<path d="M486.435 373.155V476.791L412.633 494.397L314.21 476.791V373.155C314.21 358.815 325.841 347.184 340.181 347.184H460.465C474.804 347.184 486.435 358.815 486.435 373.155V373.155Z" fill="#F9F6F6"/>
<path d="M421.493 492.285L412.633 494.397L314.209 476.791V373.155C314.209 358.815 325.84 347.184 340.18 347.184H360.866C346.526 347.184 334.895 358.815 334.895 373.155V476.791L421.493 492.285Z" fill="#DDDAEC"/>
<path d="M486.435 466.943V476.791L412.632 494.397L314.209 476.791V466.943H486.435Z" fill="#DDDAEC"/>
<path d="M493.147 476.789H307.493C297.77 476.789 289.888 484.671 289.888 494.394C289.888 504.117 297.77 511.999 307.493 511.999H493.147C502.87 511.999 510.752 504.117 510.752 494.394C510.752 484.671 502.87 476.789 493.147 476.789Z" fill="#F9F6F6"/>
<path d="M346.507 506.849C349.69 510.032 354.089 512 358.952 512H307.494C302.642 512 298.233 510.032 295.049 506.849C291.866 503.655 289.888 499.256 289.888 494.394C289.888 484.669 297.779 476.788 307.494 476.788H358.952C349.227 476.788 341.346 484.669 341.346 494.394C341.346 499.257 343.313 503.655 346.507 506.849Z" fill="#DDDAEC"/>
<path d="M350.918 461.337C339.199 461.337 329.663 451.802 329.663 440.082V383.891C329.663 372.171 339.198 362.636 350.918 362.636H449.724C461.443 362.636 470.979 372.171 470.979 383.891V440.082C470.979 451.802 461.444 461.337 449.724 461.337H350.918Z" fill="#DF75A5"/>
<path d="M375.238 461.341H350.915C339.192 461.341 329.662 451.802 329.662 440.088V383.892C329.662 372.179 339.191 362.639 350.915 362.639H375.238C363.515 362.639 353.985 372.178 353.985 383.892V440.088C353.986 451.801 363.515 461.341 375.238 461.341V461.341Z" fill="#DD5790"/>
</svg>
