<svg width="512" height="512" viewBox="0 0 512 512" fill="none" xmlns="http://www.w3.org/2000/svg">
<g clip-path="url(#clip0_2_2244)">
<path d="M479.267 169.437V268.627L407.388 295.305L37.743 185.154L32.732 162.854V143.99C32.732 116.597 54.939 94.39 82.322 94.39H404.22C445.662 94.39 479.267 127.995 479.267 169.437V169.437Z" fill="#665E66"/>
<path d="M479.267 228.233V268.628L436.586 355.697L32.733 220.267V202.775C32.733 175.382 54.94 153.185 82.323 153.185H404.22C445.662 153.185 479.267 186.78 479.267 228.233V228.233Z" fill="#544F57"/>
<path d="M395.651 112.372C395.651 174.43 345.337 224.734 283.279 224.734C281.373 224.734 279.478 224.683 277.603 224.59C218.182 221.633 170.907 172.525 170.907 112.372C170.907 76.141 188.059 43.906 214.69 23.375C233.665 8.715 257.452 0 283.279 0C345.337 0 395.651 50.314 395.651 112.372V112.372Z" fill="#FFE07D"/>
<path d="M298.735 223.684C293.678 224.379 288.524 224.743 283.274 224.743C221.217 224.743 170.911 174.437 170.911 112.37C170.911 50.313 221.217 0.00695801 283.274 0.00695801C288.524 0.00695801 293.677 0.370958 298.735 1.06596C243.992 8.59296 201.833 55.563 201.833 112.37C201.833 169.187 243.992 216.157 298.735 223.684V223.684Z" fill="#FFC250"/>
<path d="M321.375 135.592C321.375 171.834 304.222 204.068 277.603 224.589C218.182 221.632 170.907 172.524 170.907 112.371C170.907 76.14 188.059 43.905 214.69 23.374C274.11 26.331 321.375 75.44 321.375 135.592V135.592Z" fill="#FFC250"/>
<path d="M186.915 264.278C248.975 264.278 299.284 213.969 299.284 151.909C299.284 89.8493 248.975 39.54 186.915 39.54C124.855 39.54 74.546 89.8493 74.546 151.909C74.546 213.969 124.855 264.278 186.915 264.278Z" fill="#FFE07D"/>
<path d="M202.37 263.224C197.313 263.919 192.159 264.283 186.909 264.283C124.852 264.283 74.546 213.977 74.546 151.91C74.546 89.853 124.852 39.547 186.909 39.547C192.159 39.547 197.312 39.911 202.37 40.606C147.627 48.133 105.468 95.103 105.468 151.91C105.468 208.726 147.627 255.697 202.37 263.224V263.224Z" fill="#FFC250"/>
<path d="M186.042 82.255L143.301 138.4C135.686 148.403 142.82 162.8 155.392 162.8H177.763V215.006C177.763 225.614 191.437 229.894 197.485 221.179L230.923 172.997C237.916 162.92 230.705 149.138 218.439 149.138H205.484V88.813C205.484 78.447 192.321 74.007 186.042 82.255V82.255Z" fill="#FFC250"/>
<path d="M479.267 268.628V436.953C479.267 478.406 445.662 512.001 404.22 512.001H317.908L299.724 506.086L289.04 512H263.465L251.73 507.248L234.596 512H209.01L198.064 503.321L180.141 512H82.322C54.94 512 32.732 489.793 32.732 462.41V143.99C32.732 157.687 38.281 170.079 47.263 179.049C56.234 188.03 68.636 193.58 82.322 193.58H404.22C445.662 193.58 479.267 227.174 479.267 268.628V268.628Z" fill="#80B4FB"/>
<path d="M84.183 193.58V512H82.323C54.941 512 32.733 489.793 32.733 462.41V143.99C32.733 157.687 38.282 170.079 47.264 179.049C56.235 188.03 68.637 193.58 82.323 193.58H84.183Z" fill="#61A2F9"/>
<path d="M209.01 449.088V512H180.141V455.076L123.388 398.312C117.743 392.677 117.743 383.536 123.388 377.901C129.023 372.266 138.164 372.266 143.799 377.901L204.776 438.889C207.481 441.593 209.01 445.26 209.01 449.088Z" fill="#FFC250"/>
<path d="M374.662 360.889L317.909 417.653V512H289.04V411.666C289.04 407.838 290.558 404.171 293.263 401.466L354.251 340.478C359.886 334.843 369.027 334.843 374.662 340.478C380.296 346.113 380.296 355.254 374.662 360.889Z" fill="#FFC250"/>
<path d="M263.464 367.198V512H234.595V373.185L195.965 334.555C190.33 328.91 190.33 319.779 195.965 314.133C201.6 308.498 210.741 308.498 216.376 314.133L259.23 356.997C261.946 359.702 263.464 363.37 263.464 367.198Z" fill="#FFC250"/>
<path d="M133.59 417.092C149.596 417.092 162.572 404.116 162.572 388.11C162.572 372.104 149.596 359.128 133.59 359.128C117.584 359.128 104.608 372.104 104.608 388.11C104.608 404.116 117.584 417.092 133.59 417.092Z" fill="#FFE07D"/>
<path d="M143.549 415.342C140.448 416.475 137.091 417.096 133.584 417.096C117.578 417.096 104.609 404.116 104.609 388.11C104.609 372.104 117.578 359.124 133.584 359.124C137.091 359.124 140.448 359.744 143.549 360.878C132.451 364.952 124.528 375.601 124.528 388.111C124.528 400.62 132.45 411.269 143.549 415.342V415.342Z" fill="#FFC250"/>
<path d="M364.454 379.67C380.46 379.67 393.436 366.694 393.436 350.688C393.436 334.682 380.46 321.706 364.454 321.706C348.448 321.706 335.472 334.682 335.472 350.688C335.472 366.694 348.448 379.67 364.454 379.67Z" fill="#FFE07D"/>
<path d="M374.413 377.92C371.312 379.053 367.955 379.674 364.448 379.674C348.442 379.674 335.473 366.694 335.473 350.688C335.473 334.682 348.442 321.702 364.448 321.702C367.955 321.702 371.312 322.322 374.413 323.456C363.315 327.53 355.392 338.179 355.392 350.689C355.391 363.197 363.314 373.847 374.413 377.92V377.92Z" fill="#FFC250"/>
<path d="M206.169 353.325C222.175 353.325 235.151 340.349 235.151 324.343C235.151 308.337 222.175 295.361 206.169 295.361C190.163 295.361 177.187 308.337 177.187 324.343C177.187 340.349 190.163 353.325 206.169 353.325Z" fill="#FFE07D"/>
<path d="M216.128 351.576C213.027 352.709 209.67 353.33 206.163 353.33C190.157 353.33 177.188 340.35 177.188 324.344C177.188 308.338 190.157 295.358 206.163 295.358C209.67 295.358 213.027 295.978 216.128 297.112C205.03 301.186 197.107 311.835 197.107 324.345C197.107 336.853 205.03 347.502 216.128 351.576V351.576Z" fill="#FFC250"/>
<path d="M439.654 63.815H424.275V48.4361C424.275 34.5131 412.988 23.2271 399.066 23.2271C385.144 23.2271 373.857 34.5141 373.857 48.4361V63.815H358.478C344.555 63.815 333.269 75.1021 333.269 89.0241C333.269 102.947 344.556 114.233 358.478 114.233H373.857V129.612C373.857 143.535 385.144 154.821 399.066 154.821C412.988 154.821 424.275 143.534 424.275 129.612V114.233H439.654C453.577 114.233 464.863 102.946 464.863 89.0241C464.864 75.1011 453.577 63.815 439.654 63.815V63.815Z" fill="#F9F6F6"/>
</g>
<defs>
<clipPath id="clip0_2_2244">
<rect width="512" height="512" fill="white"/>
</clipPath>
</defs>
</svg>
