<?xml version="1.0"?>
<svg xmlns="http://www.w3.org/2000/svg" xmlns:xlink="http://www.w3.org/1999/xlink" xmlnsSvgJs="http://svgjs.com/svgjs" version="1.1" width="512" height="512" x="0" y="0" viewBox="0 0 512 512" style="enable-background:new 0 0 512 512" xml:space="preserve" class=""><g><g xmlns="http://www.w3.org/2000/svg"><path clip-rule="evenodd" d="m248.471 444.235h-150.589c-8.317 0-15.059-6.742-15.059-15.059v-346.352c0-8.317 6.742-15.059 15.059-15.059h150.588c8.317 0 15.059 6.742 15.059 15.059v346.353c0 8.317-6.742 15.058-15.058 15.058zm-203.295 37.647h112.941c4.158 0 7.529 3.371 7.529 7.529v15.059c0 4.158-3.371 7.529-7.529 7.529h-128c-8.317 0-15.059-6.742-15.059-15.059v-481.881c.001-8.317 6.743-15.059 15.06-15.059h128c4.158 0 7.529 3.371 7.529 7.529v15.059c0 4.159-3.371 7.529-7.529 7.529h-112.942zm400.351-240.941-29.204-29.204c-2.94-2.94-2.94-7.708 0-10.648l10.648-10.649c2.94-2.94 7.708-2.94 10.648 0l54.911 54.912c5.881 5.881 5.881 15.415 0 21.296l-54.911 54.912c-2.94 2.94-7.708 2.94-10.648 0l-10.648-10.649c-2.94-2.94-2.94-7.708 0-10.648l29.204-29.204h-121.762c-4.158 0-7.529-3.371-7.529-7.529v-15.059c0-4.158 3.371-7.529 7.529-7.529h121.762z" fill-rule="evenodd" fill="#006201" data-original="#000000" class=""/></g></g></svg>
