<?xml version="1.0"?>
<svg xmlns="http://www.w3.org/2000/svg" xmlns:xlink="http://www.w3.org/1999/xlink" xmlnsSvgJs="http://svgjs.com/svgjs" version="1.1" width="512" height="512" x="0" y="0" viewBox="0 0 512 512" style="enable-background:new 0 0 512 512" xml:space="preserve" class=""><g><g xmlns="http://www.w3.org/2000/svg"><path d="m45.176 481.882h105.412c8.317 0 15.059 6.742 15.059 15.059s-6.742 15.059-15.059 15.059h-120.47c-8.317 0-15.059-6.742-15.059-15.059v-481.882c0-8.317 6.742-15.059 15.059-15.059h120.471c8.317 0 15.059 6.742 15.059 15.059s-6.742 15.059-15.059 15.059h-105.413zm400.351-240.941-26.999-26.999c-5.881-5.881-5.881-15.415 0-21.296s15.416-5.881 21.296 0l52.706 52.706c5.881 5.881 5.881 15.415 0 21.296l-52.706 52.706c-5.881 5.881-15.416 5.881-21.296 0-5.881-5.88-5.881-15.415 0-21.296l26.999-26.999h-114.233c-8.317 0-15.059-6.742-15.059-15.059s6.742-15.059 15.059-15.059zm-189.527 210.824h-165.647c-8.317 0-15.059-6.742-15.059-15.059v-361.412c0-8.317 6.742-15.059 15.059-15.059h165.647c8.317 0 15.059 6.742 15.059 15.059v361.412c0 8.317-6.742 15.059-15.059 15.059zm-15.059-361.412h-135.529v331.294h135.529z" fill="#006201" data-original="#000000" class=""/></g></g></svg>
