<svg width="70" height="70" viewBox="0 0 70 70" fill="none" xmlns="http://www.w3.org/2000/svg">
<path d="M67.2656 37.7344H2.73438C1.22418 37.7344 0 36.5102 0 35C0 33.4898 1.22418 32.2656 2.73438 32.2656H67.2656C68.7758 32.2656 70 33.4898 70 35C70 36.5102 68.7758 37.7344 67.2656 37.7344Z" fill="url(#paint0_linear_9_9888)"/>
<path d="M67.2656 15.8594H2.73438C1.22418 15.8594 0 14.6352 0 13.125C0 11.6148 1.22418 10.3906 2.73438 10.3906H67.2656C68.7758 10.3906 70 11.6148 70 13.125C70 14.6352 68.7758 15.8594 67.2656 15.8594Z" fill="url(#paint1_linear_9_9888)"/>
<path d="M67.2656 59.6094H2.73438C1.22418 59.6094 0 58.3852 0 56.875C0 55.3648 1.22418 54.1406 2.73438 54.1406H67.2656C68.7758 54.1406 70 55.3648 70 56.875C70 58.3852 68.7758 59.6094 67.2656 59.6094Z" fill="url(#paint2_linear_9_9888)"/>
<defs>
<linearGradient id="paint0_linear_9_9888" x1="0" y1="35" x2="70" y2="35" gradientUnits="userSpaceOnUse">
<stop stop-color="#80D8FF"/>
<stop offset="0.16" stop-color="#88D1FF"/>
<stop offset="0.413" stop-color="#9FBEFE"/>
<stop offset="0.725" stop-color="#C4A0FD"/>
<stop offset="1" stop-color="#EA80FC"/>
</linearGradient>
<linearGradient id="paint1_linear_9_9888" x1="0" y1="13.125" x2="70" y2="13.125" gradientUnits="userSpaceOnUse">
<stop stop-color="#80D8FF"/>
<stop offset="0.16" stop-color="#88D1FF"/>
<stop offset="0.413" stop-color="#9FBEFE"/>
<stop offset="0.725" stop-color="#C4A0FD"/>
<stop offset="1" stop-color="#EA80FC"/>
</linearGradient>
<linearGradient id="paint2_linear_9_9888" x1="0" y1="56.875" x2="70" y2="56.875" gradientUnits="userSpaceOnUse">
<stop stop-color="#80D8FF"/>
<stop offset="0.16" stop-color="#88D1FF"/>
<stop offset="0.413" stop-color="#9FBEFE"/>
<stop offset="0.725" stop-color="#C4A0FD"/>
<stop offset="1" stop-color="#EA80FC"/>
</linearGradient>
</defs>
</svg>
