<?xml version="1.0"?>
<svg xmlns="http://www.w3.org/2000/svg" xmlns:xlink="http://www.w3.org/1999/xlink" xmlnsSvgJs="http://svgjs.com/svgjs" version="1.1" width="512" height="512" x="0" y="0" viewBox="0 0 32 32" style="enable-background:new 0 0 512 512" xml:space="preserve" class=""><g><g xmlns="http://www.w3.org/2000/svg" id="Arrow_Outline" data-name="Arrow Outline"><path d="m29.3107 7.6318-3.6069-4.5085a1.67 1.67 0 0 0 -1.3038-.6268h-.0028a1.5326 1.5326 0 0 0 -1.2687 2.3935l1.1725 1.7418h-20.2868a1.5 1.5 0 1 0 0 3h20.2865l-1.1722 1.7419a1.5326 1.5326 0 0 0 1.2683 2.3931h.0032a1.67 1.67 0 0 0 1.3042-.6269l3.6069-4.5086a.8.8 0 0 0 -.0004-.9995z" fill="#ffffff" data-original="#000000" class=""/><path d="m28 19.4678h-24a1.5 1.5 0 0 1 0-3h24a1.5 1.5 0 0 1 0 3z" fill="#ffffff" data-original="#000000" class=""/><path d="m27.9526 28.3037h-23.9052a1.5 1.5 0 0 1 0-3h23.9052a1.5 1.5 0 0 1 0 3z" fill="#ffffff" data-original="#000000" class=""/></g></g></svg>
